# Blender v3.3.1 OBJ File: 'warehouse02.blend'
# www.blender.org
mtllib warehouse02.mtl
o Cube
v 3.001397 2.000000 -1.978561
v 3.001397 0.000000 -1.978561
v 3.001397 2.000000 1.978561
v 3.001397 0.000000 1.978561
v -3.001397 2.000000 -1.978561
v -3.001397 0.000000 -1.978561
v -3.001397 2.000000 1.978561
v -3.001397 0.000000 1.978561
v -3.001397 0.000000 0.000000
v 3.002909 2.599431 0.000000
v -3.002909 2.599431 0.000000
v 3.001397 0.000000 0.000000
v -3.001397 0.000000 1.734277
v 3.001583 2.074009 1.734277
v -3.001583 2.074009 1.734277
v 3.001397 0.000000 1.734277
v -3.001586 2.074929 -1.731241
v 3.001397 0.000000 -1.731241
v -3.001397 0.000000 -1.731241
v 3.001586 2.074929 -1.731241
v 3.002454 1.815899 0.000000
v 3.001560 1.815436 1.734277
v 3.001562 1.816241 -1.731241
v -2.194416 0.001747 -0.000000
v -2.194416 0.001747 1.734277
v -2.194416 0.001747 -1.731241
v -2.193359 1.817646 -0.000000
v -2.194252 1.817183 1.734277
v -2.194250 1.817989 -1.731241
v 3.118500 1.999977 -1.978561
v 3.118500 -0.000023 -1.978561
v 3.118500 1.999977 1.978561
v 3.118500 -0.000023 1.978561
v 3.120012 2.599408 0.000000
v 3.118686 2.073986 1.734277
v 3.118500 -0.000023 1.734277
v 3.118500 -0.000023 -1.731241
v 3.118689 2.074906 -1.731241
v 3.119556 1.815875 0.000000
v 3.118663 1.815413 1.734277
v 3.118665 1.816218 -1.731241
v 3.060113 1.816230 -1.731241
v 3.060112 1.815424 1.734277
v 3.061005 1.815887 0.000000
v 3.002383 1.458780 -0.000083
v 3.001490 1.458317 1.734194
v 3.001492 1.459123 -1.731324
v 3.060043 1.459111 -1.731324
v 3.060041 1.458305 1.734194
v 3.060935 1.458768 -0.000083
vt 0.242621 0.000087
vt 0.258584 0.392360
vt 0.242621 0.392373
vt 0.274547 0.392262
vt 0.258584 0.000000
vt 0.274547 0.000000
vt 0.129292 0.392459
vt 0.016162 0.400025
vt 0.016162 0.392373
vt 0.647861 0.007652
vt 0.517170 0.000000
vt 0.647863 0.000000
vt 0.501007 0.392262
vt 0.387876 0.000000
vt 0.501007 0.000000
vt 0.016162 0.000087
vt 0.647864 0.007652
vt 0.778555 0.000000
vt 0.778557 0.007652
vt 0.387876 0.392262
vt 0.129292 0.000000
vt 0.881367 0.529206
vt 0.745777 0.416075
vt 0.881367 0.416075
vt 0.745837 0.642535
vt 0.881367 0.642535
vt 0.258584 0.399972
vt 0.371715 0.739442
vt 0.258584 0.739500
vt 0.999999 0.739442
vt 0.881368 0.399943
vt 1.000000 0.399914
vt 0.517168 0.399914
vt 0.647861 0.399914
vt 0.242621 0.400025
vt 0.129292 0.400111
vt 0.750674 0.399914
vt 0.881367 0.399914
vt 0.647864 0.399914
vt 0.000000 0.000099
vt 0.000000 0.392360
vt 0.517168 0.392262
vt 0.517168 0.000000
vt 0.228139 0.400111
vt 0.231966 0.423448
vt 0.228139 0.423448
vt 0.000000 0.400012
vt 0.750674 0.658498
vt 0.881367 0.658498
vt 0.830188 0.771827
vt 0.711556 0.658498
vt 0.830188 0.658498
vt 0.830188 0.884957
vt 0.711525 0.771827
vt 0.897242 0.007681
vt 0.778558 0.347180
vt 0.778557 0.007652
vt 0.485043 0.399972
vt 0.371715 0.399914
vt 0.598372 0.399914
vt 0.485044 0.739442
vt 0.485044 0.399914
vt 0.711503 0.399914
vt 0.598372 0.739442
vt 0.118632 0.642732
vt 0.135529 0.642732
vt 0.130693 0.658695
vt 0.135589 0.416273
vt 0.118663 0.529403
vt 0.118685 0.416273
vt 0.000000 0.658695
vt 0.000000 0.642732
vt 0.130693 0.400111
vt 0.000000 0.400111
vt 0.000000 0.416273
vt 1.000000 0.743268
vt 1.000000 0.747094
vt 0.881368 0.747123
vt 0.501007 0.399914
vt 0.778558 0.000000
vt 0.897243 0.000029
vt 0.897243 0.003855
vt 0.258584 0.399914
vt 0.258584 0.392262
vt 0.258584 0.400012
vt 0.193208 0.400112
vt 0.216541 0.513242
vt 0.193204 0.513242
vt 0.224255 0.513440
vt 0.220487 0.400111
vt 0.224313 0.400111
vt 0.220487 0.626571
vt 0.220429 0.513440
vt 0.220371 0.513440
vt 0.216603 0.626571
vt 0.216544 0.513440
vt 0.216603 0.400111
vt 0.220429 0.400111
vt 0.169868 0.400112
vt 0.193200 0.513440
vt 0.169864 0.513440
vt 0.193208 0.626571
vt 0.216544 0.626571
vt 0.224313 0.423448
vt 0.228139 0.400111
vt 0.228139 0.423448
vt 0.169868 0.626571
vt 0.193204 0.626571
vt 0.258584 0.000099
vt 0.517168 0.007652
vt 0.647862 0.000000
vt 0.711503 0.529206
vt 0.881367 0.739471
vt 0.778557 0.399914
vt 0.231966 0.400111
vt 0.711503 0.884957
vt 0.897243 0.347209
vt 0.485043 0.739500
vt 0.711503 0.739442
vt 0.169864 0.529403
vt 0.517168 0.399914
vt 0.274547 0.399914
vt 0.216544 0.400112
vt 0.224313 0.626571
vt 0.220429 0.626571
vt 0.193204 0.400112
vt 0.224313 0.400111
vn 0.0000 0.9570 0.2899
vn 0.0000 -1.0000 0.0000
vn 0.0002 0.9570 -0.2899
vn 0.0000 0.0000 -1.0000
vn 0.0000 0.9570 -0.2899
vn 0.0000 0.0000 1.0000
vn -1.0000 -0.0001 0.0000
vn -0.0003 -1.0000 -0.0002
vn 0.0002 0.9570 0.2899
vn -1.0000 0.0000 0.0000
vn 0.0000 -0.0002 1.0000
vn 1.0000 -0.0001 0.0000
vn 1.0000 -0.0006 0.0000
vn -0.0003 -1.0000 -0.0003
vn 0.0003 1.0000 0.0000
vn 1.0000 -0.0001 0.0007
vn 1.0000 -0.0001 -0.0005
vn 1.0000 -0.0001 0.0005
vn 1.0000 -0.0001 -0.0007
vn -0.0002 -1.0000 0.0000
vn -1.0000 0.0002 0.0005
vn -0.0002 -1.0000 -0.0003
vn -0.0002 -1.0000 -0.0002
vn 1.0000 -0.0002 0.0005
vn -1.0000 0.0002 -0.0005
vn 0.0000 0.0002 -1.0000
vn 1.0000 -0.0002 -0.0005
vn -1.0000 -0.0006 -0.0006
vn -1.0000 -0.0006 0.0006
vn -1.0000 -0.0001 -0.0007
vn -1.0000 -0.0001 0.0007
vn 1.0000 -0.0006 0.0005
vn 1.0000 -0.0006 -0.0006
vn 1.0000 -0.0006 0.0006
vn 1.0000 0.0000 0.0007
vn 1.0000 0.0000 -0.0007
usemtl Material
s off
f 15/1/1 3/2/1 14/3/1
f 16/4/2 8/5/2 13/6/2
f 10/7/3 38/8/3 20/9/3
f 2/10/4 30/11/4 31/12/4
f 18/13/2 9/14/2 19/15/2
f 17/16/5 10/7/5 20/9/5
f 4/17/6 32/18/6 3/19/6
f 12/20/2 13/6/2 9/14/2
f 11/21/1 14/3/1 10/7/1
f 9/22/7 17/23/7 19/24/7
f 15/25/7 9/22/7 13/26/7
f 23/27/8 27/28/8 29/29/8
f 22/30/4 25/31/4 28/32/4
f 5/33/4 2/10/4 6/34/4
f 10/7/9 35/35/9 34/36/9
f 19/24/10 5/37/10 6/38/10
f 3/19/6 8/39/6 4/17/6
f 5/40/5 20/9/5 1/41/5
f 2/42/2 19/15/2 6/43/2
f 43/44/11 46/45/11 49/46/11
f 20/9/3 30/47/3 1/41/3
f 7/48/10 13/26/10 8/49/10
f 24/50/12 28/51/12 25/52/12
f 26/53/13 27/54/13 24/50/13
f 23/55/6 26/56/6 18/57/6
f 22/58/14 27/28/14 21/59/14
f 12/60/15 25/61/15 16/62/15
f 18/63/15 24/64/15 12/60/15
f 40/65/16 35/66/16 32/67/16
f 38/68/17 39/69/17 41/70/17
f 39/69/18 35/66/18 40/65/18
f 40/65/12 33/71/12 36/72/12
f 30/73/19 38/68/19 41/70/19
f 31/74/12 41/70/12 37/75/12
f 43/76/4 40/77/4 36/78/4
f 2/42/20 37/79/20 18/13/20
f 37/80/6 41/81/6 42/82/6
f 16/4/20 33/83/20 4/84/20
f 14/3/9 32/85/9 35/35/9
f 23/86/21 45/87/21 21/88/21
f 44/89/22 40/90/22 43/91/22
f 44/89/23 41/92/23 39/93/23
f 45/94/23 48/95/23 50/96/23
f 45/94/22 49/97/22 46/98/22
f 43/99/24 50/100/24 44/101/24
f 22/102/25 45/87/25 46/103/25
f 42/104/26 47/105/26 23/106/26
f 42/107/27 50/100/27 48/108/27
f 15/1/1 7/109/1 3/2/1
f 16/4/2 4/84/2 8/5/2
f 10/7/3 34/36/3 38/8/3
f 2/10/4 1/110/4 30/11/4
f 18/13/2 12/20/2 9/14/2
f 17/16/5 11/21/5 10/7/5
f 4/17/6 33/111/6 32/18/6
f 12/20/2 16/4/2 13/6/2
f 11/21/1 15/1/1 14/3/1
f 9/22/28 11/112/28 17/23/28
f 15/25/29 11/112/29 9/22/29
f 23/27/8 21/59/8 27/28/8
f 22/30/4 16/113/4 25/31/4
f 5/33/4 1/110/4 2/10/4
f 10/7/9 14/3/9 35/35/9
f 19/24/30 17/23/30 5/37/30
f 3/19/6 7/114/6 8/39/6
f 5/40/5 17/16/5 20/9/5
f 2/42/2 18/13/2 19/15/2
f 43/44/11 22/115/11 46/45/11
f 20/9/3 38/8/3 30/47/3
f 7/48/31 15/25/31 13/26/31
f 24/50/32 27/54/32 28/51/32
f 26/53/17 29/116/17 27/54/17
f 23/55/6 29/117/6 26/56/6
f 22/58/14 28/118/14 27/28/14
f 12/60/15 24/64/15 25/61/15
f 18/63/15 26/119/15 24/64/15
f 38/68/33 34/120/33 39/69/33
f 39/69/34 34/120/34 35/66/34
f 40/65/35 32/67/35 33/71/35
f 31/74/36 30/73/36 41/70/36
f 36/78/4 16/113/4 43/76/4
f 16/113/4 22/30/4 43/76/4
f 2/42/20 31/121/20 37/79/20
f 42/82/6 23/55/6 18/57/6
f 18/57/6 37/80/6 42/82/6
f 16/4/20 36/122/20 33/83/20
f 14/3/9 3/2/9 32/85/9
f 23/86/21 47/123/21 45/87/21
f 44/89/22 39/93/22 40/90/22
f 44/89/23 42/124/23 41/92/23
f 45/94/23 47/125/23 48/95/23
f 45/94/22 50/96/22 49/97/22
f 43/99/24 49/126/24 50/100/24
f 22/102/25 21/88/25 45/87/25
f 42/104/26 48/127/26 47/105/26
f 42/107/27 44/101/27 50/100/27
