# Blender v3.3.1 OBJ File: ''
# www.blender.org
mtllib galaxyPropeller.mtl
o 円柱.007_円柱.009
v 0.014119 -0.035461 -0.003863
v 0.005227 -0.006609 -0.331852
v 0.008047 0.003603 -0.331030
v 0.028966 0.001514 -0.376846
v 0.061941 -0.049789 0.010073
v 0.053143 -0.001880 -0.417643
v 0.079649 -0.006446 -0.451852
v 0.107466 -0.012011 -0.478160
v 0.135525 -0.018360 -0.495556
v 0.162747 -0.025248 -0.503370
v 0.188086 -0.032412 -0.501303
v 0.207748 -0.049789 -0.490256
v 0.210568 -0.039576 -0.489434
v 0.226510 -0.056678 -0.469041
v 0.229331 -0.046465 -0.468219
v 0.240831 -0.063026 -0.439295
v 0.243651 -0.052813 -0.438473
v 0.250159 -0.068591 -0.402162
v 0.252980 -0.058378 -0.401340
v 0.254138 -0.073158 -0.359068
v 0.245643 -0.078641 -0.261789
v 0.256958 -0.062945 -0.358246
v 0.252613 -0.076551 -0.311670
v 0.255433 -0.066338 -0.310848
v 0.245643 -0.078641 -0.261789
v 0.248463 -0.068428 -0.260967
v 0.233497 -0.079346 -0.211342
v 0.236317 -0.069133 -0.210520
v 0.216640 -0.078641 -0.162267
v 0.219460 -0.068428 -0.161445
v 0.195721 -0.076551 -0.116451
v 0.198542 -0.066338 -0.115629
v 0.207748 -0.049789 -0.490256
v 0.188086 -0.032412 -0.501303
v 0.185265 -0.042625 -0.502125
v 0.162747 -0.025248 -0.503370
v 0.159926 -0.035461 -0.504192
v 0.135525 -0.018360 -0.495556
v 0.132704 -0.028572 -0.496378
v 0.107466 -0.012011 -0.478160
v 0.104646 -0.022224 -0.478982
v 0.079649 -0.006446 -0.451852
v 0.076829 -0.016659 -0.452674
v 0.053143 -0.001880 -0.417643
v 0.050323 -0.012093 -0.418464
v 0.028966 0.001514 -0.376846
v 0.026146 -0.008699 -0.377668
v 0.008047 0.003603 -0.331030
v -0.011630 -0.005904 -0.282777
v 0.005227 -0.006609 -0.331852
v -0.008809 0.004309 -0.281955
v -0.008809 0.004309 -0.281955
v -0.004643 -0.028572 -0.025078
v -0.001823 -0.018360 -0.024256
v -0.018964 -0.022224 -0.054824
v -0.016143 -0.012011 -0.054002
v -0.028292 -0.016659 -0.091957
v -0.025472 -0.006446 -0.091135
v -0.032271 -0.012093 -0.135051
v -0.029450 -0.001880 -0.134229
v -0.030746 -0.008699 -0.182449
v -0.027925 0.001514 -0.181627
v -0.023776 -0.006609 -0.232330
v -0.020956 0.003603 -0.231508
v 0.171544 -0.073158 -0.075655
v 0.174365 -0.062945 -0.074833
v 0.145038 -0.068591 -0.041445
v 0.147858 -0.058378 -0.040623
v 0.117221 -0.063026 -0.015137
v 0.120042 -0.052813 -0.014315
v 0.089163 -0.056678 0.002259
v 0.091983 -0.046465 0.003081
v 0.061941 -0.049789 0.010073
v 0.064761 -0.039576 0.010895
v 0.036602 -0.042625 0.008006
v 0.039422 -0.032412 0.008828
v 0.014119 -0.035461 -0.003863
v 0.016939 -0.025248 -0.003041
v -0.004643 -0.028572 -0.025078
v -0.001823 -0.018360 -0.024256
v -0.016143 -0.012011 -0.054002
v -0.025472 -0.006446 -0.091135
v -0.029450 -0.001880 -0.134229
v -0.027925 0.001514 -0.181627
v -0.020956 0.003603 -0.231508
vt 0.636350 0.746470
vt 0.636349 0.794740
vt 0.626029 0.794740
vt 0.636350 0.839965
vt 0.626029 0.839965
vt 0.636350 0.880407
vt 0.626029 0.880407
vt 0.000001 0.687178
vt 0.000001 0.650810
vt 0.010321 0.650810
vt 0.000000 0.615872
vt 0.010320 0.615871
vt 0.000001 0.583704
vt 0.010321 0.583704
vt 0.000001 0.555545
vt 0.010321 0.555545
vt 0.000001 0.532476
vt 0.010321 0.532476
vt 0.000001 0.515383
vt 0.010321 0.515383
vt 0.092793 0.535442
vt 0.092794 0.515383
vt 0.103113 0.515383
vt 0.510430 0.164938
vt 0.515382 0.213640
vt 0.515382 0.264036
vt 0.510431 0.314187
vt 0.500719 0.362167
vt 0.486619 0.406132
vt 0.468673 0.444393
vt 0.447570 0.475478
vt 0.424122 0.498195
vt 0.667312 0.602102
vt 0.667313 0.648264
vt 0.656992 0.648264
vt 0.667313 0.560297
vt 0.656992 0.602102
vt 0.667313 0.524459
vt 0.656993 0.560298
vt 0.667312 0.495962
vt 0.656992 0.524459
vt 0.399229 0.511669
vt 0.373849 0.515383
vt 0.348956 0.509194
vt 0.325507 0.493340
vt 0.304404 0.468429
vt 0.286458 0.435421
vt 0.272356 0.395582
vt 0.262643 0.350445
vt 0.257692 0.301743
vt 0.272354 0.153216
vt 0.257691 0.251347
vt 0.262642 0.201196
vt 0.286454 0.109251
vt 0.304401 0.070990
vt 0.325504 0.039904
vt 0.348951 0.017187
vt 0.373845 0.003714
vt 0.447566 0.022043
vt 0.399225 0.000000
vt 0.424117 0.006189
vt 0.468669 0.046954
vt 0.486616 0.079962
vt 0.500717 0.119800
vt 0.030963 0.564884
vt 0.030963 0.539236
vt 0.041283 0.539236
vt 0.030963 0.591343
vt 0.041283 0.564885
vt 0.030963 0.617594
vt 0.041283 0.591344
vt 0.030963 0.635156
vt 0.030962 0.661615
vt 0.020642 0.661615
vt 0.030962 0.601051
vt 0.020643 0.635156
vt 0.030963 0.560608
vt 0.020642 0.601050
vt 0.030962 0.515383
vt 0.020642 0.560608
vt 0.766589 0.160149
vt 0.766589 0.480012
vt 0.558482 0.335813
vt 0.667312 0.697012
vt 0.656992 0.746470
vt 0.656993 0.697012
vt 0.656993 0.495962
vt 0.626029 0.722601
vt 0.610950 0.698647
vt 0.601664 0.667347
vt 0.598529 0.629907
vt 0.601663 0.587762
vt 0.610949 0.542535
vt 0.626029 0.495962
vt 0.598529 0.815825
vt 0.580228 0.768871
vt 0.566630 0.720344
vt 0.558256 0.672112
vt 0.555429 0.626029
vt 0.558256 0.583863
vt 0.566630 0.547236
vt 0.580228 0.517555
vt 0.598529 0.495962
vt 0.083372 0.565717
vt 0.078415 0.540550
vt 0.083372 0.515383
vt 0.041283 0.515383
vt 0.041283 0.617594
vt 0.020643 0.515383
vt 0.667313 0.746470
vt 0.656993 0.794740
vt 0.636349 0.697012
vt 0.626029 0.746470
vt 0.636349 0.648264
vt 0.626029 0.697012
vt 0.636349 0.602102
vt 0.626029 0.648264
vt 0.636349 0.560298
vt 0.626029 0.602102
vt 0.636350 0.524459
vt 0.626029 0.560298
vt 0.636350 0.495962
vt 0.626030 0.524459
vt 0.061694 0.539236
vt 0.061695 0.560378
vt 0.051374 0.560377
vt 0.061695 0.515383
vt 0.051374 0.539236
vt 0.051374 0.564743
vt 0.041283 0.517540
vt 0.051374 0.515383
vt 0.103113 0.535442
vt 0.540181 0.288859
vt 0.526583 0.240332
vt 0.518209 0.192100
vt 0.515382 0.146017
vt 0.518209 0.103851
vt 0.526583 0.067224
vt 0.540181 0.037543
vt 0.558482 0.015950
vt 0.580781 0.003273
vt 0.606222 0.000000
vt 0.010321 0.687178
vt 0.718849 0.495962
vt 0.691244 0.489705
vt 0.662535 0.474159
vt 0.633827 0.449920
vt 0.606222 0.417922
vt 0.580781 0.379392
vt 0.626029 0.495962
vn 0.9078 -0.2761 0.3158
vn 0.8703 -0.2733 0.4098
vn 0.8703 -0.2734 0.4098
vn 0.8191 -0.2671 0.5076
vn 0.7474 -0.2558 0.6132
vn 0.7474 -0.2557 0.6132
vn 0.6424 -0.2361 0.7291
vn 0.4827 -0.2019 0.8522
vn 0.2394 -0.1434 0.9603
vn -0.0962 -0.0534 0.9939
vn -0.4528 0.0534 0.8900
vn -0.7178 0.1434 0.6813
vn 0.2654 0.9610 0.0773
vn 0.2652 0.9611 0.0773
vn 0.2654 0.9610 0.0774
vn 0.2653 0.9611 0.0773
vn 0.2655 0.9610 0.0773
vn -0.9636 0.2671 -0.0119
vn -0.9598 0.2557 0.1157
vn -0.9598 0.2558 0.1157
vn -0.9335 0.2361 0.2699
vn -0.9335 0.2360 0.2699
vn -0.8649 0.2019 0.4595
vn 0.2653 0.9611 0.0772
vn 0.2655 0.9610 0.0774
vn 0.2658 0.9609 0.0772
vn 0.2656 0.9610 0.0774
vn 0.2653 0.9611 0.0774
vn 0.2652 0.9611 0.0772
vn 0.0962 0.0534 -0.9939
vn -0.2394 0.1434 -0.9603
vn -0.4827 0.2019 -0.8522
vn -0.6424 0.2361 -0.7291
vn -0.7474 0.2557 -0.6132
vn -0.8191 0.2670 -0.5077
vn -0.8703 0.2733 -0.4098
vn -0.2654 -0.9610 -0.0773
vn -0.9353 0.2761 -0.2213
vn -0.9542 0.2734 -0.1219
vn -0.9542 0.2733 -0.1219
vn -0.2655 -0.9610 -0.0773
vn -0.2653 -0.9611 -0.0773
vn -0.2654 -0.9610 -0.0774
vn 0.4528 -0.0534 -0.8900
vn -0.2393 0.1434 -0.9603
vn -0.9078 0.2762 -0.3158
vn 0.9353 -0.2761 0.2213
vn 0.9542 -0.2733 0.1219
vn 0.9636 -0.2670 0.0119
vn 0.9598 -0.2558 -0.1157
vn 0.9598 -0.2557 -0.1157
vn 0.9335 -0.2361 -0.2699
vn 0.8649 -0.2019 -0.4595
vn 0.8650 -0.2018 -0.4595
vn 0.7178 -0.1434 -0.6813
vn 0.7178 -0.1434 -0.6814
vn -0.9078 0.2761 -0.3158
vn -0.9353 0.2762 -0.2213
vn -0.2655 -0.9610 -0.0775
vn -0.2656 -0.9610 -0.0773
vn -0.2653 -0.9610 -0.0773
vn 0.9335 -0.2360 -0.2699
usemtl マテリアル.008
s 1
f 28/1/1 30/2/1 29/3/1
f 30/2/2 32/4/3 31/5/2
f 32/4/4 66/6/4 65/7/4
f 66/8/5 68/9/6 67/10/6
f 68/9/7 70/11/7 69/12/7
f 70/11/8 72/13/8 71/14/8
f 72/13/9 74/15/9 73/16/9
f 74/15/10 76/17/10 75/18/10
f 76/17/11 78/19/11 77/20/11
f 78/21/12 80/22/12 79/23/12
f 4/24/13 3/25/14 52/26/15
f 52/26/15 85/27/16 4/24/13
f 85/27/16 84/28/13 4/24/13
f 84/28/13 83/29/17 82/30/13
f 82/30/13 81/31/13 80/32/13
f 60/33/18 62/34/18 61/35/18
f 58/36/19 60/33/20 59/37/20
f 56/38/21 58/36/22 57/39/21
f 54/40/23 56/38/23 55/41/23
f 80/32/13 78/42/13 76/43/13
f 76/43/13 74/44/13 80/32/13
f 74/44/13 72/45/13 80/32/13
f 72/45/13 70/46/24 68/47/13
f 68/47/13 66/48/25 32/49/13
f 32/49/13 30/50/25 24/51/13
f 30/50/25 28/52/26 24/51/13
f 28/52/26 26/53/27 24/51/13
f 24/51/13 22/54/17 19/55/13
f 19/55/13 17/56/28 15/57/13
f 15/57/13 13/58/15 9/59/13
f 13/58/15 11/60/15 9/59/13
f 11/60/15 10/61/15 9/59/13
f 9/59/13 8/62/13 7/63/13
f 7/63/13 6/64/29 4/24/13
f 84/28/13 82/30/13 4/24/13
f 82/30/13 80/32/13 4/24/13
f 72/45/13 68/47/13 80/32/13
f 36/65/30 34/66/30 35/67/30
f 38/68/31 36/65/31 37/69/31
f 40/70/32 38/68/32 39/71/32
f 42/72/33 40/73/33 41/74/33
f 44/75/34 42/72/34 43/76/34
f 46/77/35 44/75/35 45/78/35
f 48/79/36 46/77/36 47/80/36
f 68/47/13 32/49/13 80/32/13
f 21/81/37 5/82/37 63/83/37
f 64/84/38 49/85/38 63/86/38
f 62/34/39 63/86/40 61/35/39
f 24/51/13 19/55/13 32/49/13
f 60/33/18 61/35/18 59/37/18
f 58/36/19 59/37/20 57/39/19
f 56/38/21 57/39/21 55/41/21
f 54/40/23 55/41/23 53/87/23
f 19/55/13 15/57/13 32/49/13
f 9/59/13 7/63/13 15/57/13
f 7/63/13 4/24/13 15/57/13
f 4/24/13 80/32/13 32/49/13
f 12/88/37 14/89/41 16/90/37
f 16/90/37 18/91/41 20/92/37
f 20/92/37 23/93/42 25/94/37
f 25/95/37 27/96/41 29/97/37
f 29/97/37 31/98/42 65/99/37
f 65/99/37 67/100/43 69/101/37
f 69/101/37 71/102/43 73/103/43
f 73/104/37 75/105/37 77/106/37
f 12/88/37 16/90/37 25/94/37
f 16/90/37 20/92/37 25/94/37
f 25/95/37 29/97/37 73/103/43
f 29/97/37 65/99/37 73/103/43
f 65/99/37 69/101/37 73/103/43
f 34/66/44 33/107/44 35/67/44
f 36/65/30 35/67/30 37/69/30
f 38/68/31 37/69/31 39/71/45
f 40/70/32 39/71/32 41/108/32
f 42/72/33 41/74/33 43/76/33
f 44/75/34 43/76/34 45/78/34
f 46/77/35 45/78/35 47/80/35
f 48/79/36 47/80/36 50/109/36
f 51/110/46 50/111/46 49/85/46
f 26/112/47 28/1/47 27/113/47
f 24/114/48 26/112/48 25/115/48
f 22/116/49 24/114/49 23/117/49
f 19/118/50 22/116/51 20/119/51
f 17/120/52 19/118/52 18/121/52
f 15/122/53 17/120/54 16/123/53
f 13/124/55 15/125/56 14/126/56
f 11/127/44 13/124/44 12/128/44
f 52/129/57 3/130/57 2/131/57
f 32/49/13 15/57/13 4/24/13
f 78/21/12 79/23/12 77/132/12
f 76/17/11 77/20/11 75/18/11
f 74/15/10 75/18/10 73/16/10
f 72/13/9 73/16/9 71/14/9
f 62/34/39 64/84/40 63/86/40
f 64/84/38 51/110/58 49/85/38
f 63/83/37 49/133/41 50/134/37
f 50/134/37 47/135/43 45/136/37
f 45/136/37 43/137/59 41/138/43
f 41/138/43 39/139/43 37/140/37
f 37/140/37 35/141/37 33/142/37
f 70/11/8 71/14/8 69/12/8
f 68/9/7 69/12/7 67/10/7
f 66/8/5 67/10/6 65/143/5
f 32/4/4 65/7/4 31/5/4
f 30/2/2 31/5/2 29/3/2
f 28/1/1 29/3/1 27/113/1
f 26/112/47 27/113/47 25/115/47
f 24/114/48 25/115/48 23/117/48
f 1/144/37 53/145/41 55/146/37
f 55/146/37 57/147/60 59/148/61
f 59/148/61 61/149/43 63/83/37
f 63/83/37 50/134/37 37/140/37
f 50/134/37 45/136/37 37/140/37
f 45/136/37 41/138/43 37/140/37
f 37/140/37 33/142/37 21/81/37
f 22/116/49 23/117/49 20/119/49
f 19/118/50 20/119/51 18/121/50
f 17/120/52 18/121/52 16/123/62
f 15/122/53 16/123/53 14/150/53
f 13/124/55 14/126/56 12/128/55
f 5/82/37 1/144/37 63/83/37
f 1/144/37 55/146/37 63/83/37
f 55/146/37 59/148/61 63/83/37
f 63/83/37 37/140/37 21/81/37
o 円柱.008_円柱.010
v -0.134447 -0.014105 0.523722
v -0.150248 -0.143638 0.247707
v -0.115054 0.005170 0.513626
v -0.115650 -0.135816 0.151890
v -0.095330 -0.126321 0.109970
v -0.074013 -0.113542 0.074247
v -0.072718 0.038505 0.465977
v -0.052521 -0.097972 0.046096
v -0.031678 -0.080208 0.026598
v -0.012285 -0.060932 0.016502
v -0.031082 0.060779 0.388333
v 0.004912 -0.040886 0.016196
v 0.019253 -0.020840 0.025693
v 0.011361 -0.014105 0.023393
v 0.030185 -0.001565 0.044626
v 0.022294 0.005170 0.042326
v 0.037291 0.016199 0.072269
v 0.029399 0.022935 0.069969
v 0.040295 0.031770 0.107559
v 0.032403 0.038505 0.105260
v 0.039083 0.044548 0.149141
v 0.031191 0.051284 0.146841
v 0.033701 0.054044 0.195415
v 0.025809 0.060779 0.193115
v 0.024357 0.059891 0.244604
v 0.016465 0.066626 0.242304
v 0.022294 0.005170 0.042326
v 0.011408 0.061865 0.294817
v 0.011361 -0.014105 0.023393
v 0.019253 -0.020840 0.025693
v -0.002980 -0.034151 0.013897
v 0.004912 -0.040886 0.016196
v -0.020177 -0.054197 0.014202
v -0.012285 -0.060932 0.016502
v -0.039570 -0.073472 0.024298
v -0.031678 -0.080208 0.026598
v -0.060413 -0.091237 0.043796
v -0.052521 -0.097972 0.046096
v -0.081905 -0.106807 0.071947
v -0.074013 -0.113542 0.074247
v -0.103221 -0.119586 0.107670
v -0.095330 -0.126321 0.109970
v -0.123542 -0.129081 0.149590
v -0.115650 -0.135816 0.151890
v -0.142085 -0.134928 0.196099
v -0.150248 -0.143638 0.247707
v -0.134194 -0.141663 0.198398
v -0.158140 -0.136902 0.245407
v -0.134194 -0.141663 0.198398
v -0.151644 -0.034151 0.524027
v -0.158092 -0.060932 0.516831
v -0.165984 -0.054197 0.514531
v -0.169025 -0.080208 0.497897
v -0.176917 -0.073472 0.495597
v -0.176130 -0.097972 0.470254
v -0.184022 -0.091237 0.467954
v -0.179135 -0.113542 0.434964
v -0.187027 -0.106807 0.432664
v -0.177923 -0.126321 0.393383
v -0.185815 -0.119586 0.391083
v -0.172541 -0.135816 0.347109
v -0.180433 -0.129081 0.344809
v -0.163197 -0.141663 0.297920
v -0.171088 -0.134928 0.295620
v 0.003516 0.068600 0.292517
v -0.004646 0.059891 0.344125
v -0.012538 0.066626 0.341825
v -0.023190 0.054044 0.390633
v -0.031082 0.060779 0.388333
v -0.043510 0.044548 0.432554
v -0.051402 0.051284 0.430254
v -0.064826 0.031770 0.468276
v -0.072718 0.038505 0.465977
v -0.086319 0.016199 0.496428
v -0.094211 0.022935 0.494128
v -0.107162 -0.001565 0.515926
v -0.115054 0.005170 0.513626
v -0.126555 -0.020840 0.526022
v -0.134447 -0.014105 0.523722
v -0.143752 -0.040886 0.526327
v -0.151644 -0.034151 0.524027
v -0.158092 -0.060932 0.516831
v -0.169025 -0.080208 0.497897
v -0.176130 -0.097972 0.470254
v -0.179135 -0.113542 0.434964
v -0.177923 -0.126321 0.393383
v -0.172541 -0.135816 0.347109
v -0.163197 -0.141663 0.297920
vt 0.806637 0.029493
vt 0.827356 0.010208
vt 0.850994 0.000250
vt 0.776997 0.092747
vt 0.789632 0.057363
vt 0.766589 0.180380
vt 0.769216 0.134285
vt 0.769217 0.229263
vt 0.806636 0.373745
vt 0.776997 0.279054
vt 0.789632 0.327839
vt 0.677633 0.650664
vt 0.677633 0.687063
vt 0.667313 0.687063
vt 0.677634 0.614296
vt 0.667313 0.650664
vt 0.677633 0.579357
vt 0.667314 0.614296
vt 0.677633 0.547190
vt 0.667313 0.579357
vt 0.677633 0.519031
vt 0.667313 0.547190
vt 0.677634 0.495962
vt 0.667313 0.519030
vt 0.525790 0.559216
vt 0.538425 0.523832
vt 0.555429 0.495962
vt 0.515382 0.646850
vt 0.555429 0.840214
vt 0.004951 0.314187
vt 0.000000 0.264036
vt 0.000001 0.213640
vt 0.004953 0.164938
vt 0.014665 0.119801
vt 0.028767 0.079962
vt 0.046714 0.046953
vt 0.067817 0.022044
vt 0.091266 0.006189
vt 0.116158 0.000000
vt 0.141539 0.003714
vt 0.166431 0.017188
vt 0.189879 0.039904
vt 0.210982 0.070990
vt 0.228928 0.109252
vt 0.243029 0.153217
vt 0.252741 0.201197
vt 0.257691 0.251348
vt 0.257691 0.301743
vt 0.252739 0.350445
vt 0.243026 0.395583
vt 0.228925 0.435421
vt 0.210977 0.468430
vt 0.189874 0.493340
vt 0.166426 0.509194
vt 0.061695 0.538452
vt 0.061695 0.515383
vt 0.072015 0.515383
vt 0.061695 0.555545
vt 0.072014 0.538453
vt 0.646671 0.519721
vt 0.646671 0.495962
vt 0.656991 0.495962
vt 0.646671 0.550898
vt 0.656992 0.519721
vt 0.646671 0.588295
vt 0.656991 0.550898
vt 0.646672 0.630476
vt 0.656991 0.588295
vt 0.646671 0.675819
vt 0.656991 0.630477
vt 0.646672 0.722582
vt 0.656991 0.675819
vt 0.646671 0.768968
vt 0.656991 0.722582
vt 0.141533 0.515383
vt 0.116153 0.511669
vt 0.646671 0.813193
vt 0.656992 0.768968
vt 0.656991 0.813194
vt 0.646671 0.853560
vt 0.656991 0.853560
vt 1.000000 0.132040
vt 1.000000 0.476292
vt 0.091260 0.498195
vt 0.067812 0.475478
vt 0.046710 0.444393
vt 0.028763 0.406132
vt 0.014663 0.362167
vt 0.072015 0.555545
vt 0.876644 0.000000
vt 0.903318 0.009469
vt 0.518009 0.600754
vt 0.525790 0.745523
vt 0.518009 0.695733
vt 0.538425 0.794308
vt 0.074843 0.603634
vt 0.072015 0.561467
vt 0.074843 0.515383
vt 0.078415 0.585236
vt 0.074843 0.552784
vt 0.078415 0.515383
vt 0.636350 0.514151
vt 0.636351 0.495962
vt 0.646671 0.495962
vt 0.979281 0.495576
vt 0.903318 0.496314
vt 0.955642 0.505533
vt 0.929992 0.505784
vt 0.876643 0.477491
vt 0.850994 0.450037
vt 0.827355 0.415005
vt 0.955642 0.055747
vt 0.636350 0.539860
vt 0.646670 0.514151
vt 0.636350 0.572099
vt 0.646671 0.539860
vt 0.636350 0.609630
vt 0.646671 0.572099
vt 0.636350 0.651012
vt 0.646670 0.609631
vt 0.636350 0.694652
vt 0.646671 0.651011
vt 0.636350 0.738875
vt 0.646670 0.694652
vt 0.636350 0.781980
vt 0.646670 0.738875
vt 0.636351 0.822312
vt 0.646670 0.781980
vt 0.636350 0.858320
vt 0.646671 0.822312
vt 0.020642 0.647016
vt 0.020642 0.683415
vt 0.010322 0.683415
vt 0.020641 0.610648
vt 0.010321 0.647016
vt 0.020642 0.575709
vt 0.010321 0.610647
vt 0.020641 0.543541
vt 0.010321 0.575708
vt 0.020642 0.515383
vt 0.010322 0.543541
vt 0.092793 0.515383
vt 0.092793 0.540655
vt 0.083372 0.519597
vt 0.646671 0.858320
vt 0.010321 0.515383
vn -0.7426 0.6338 -0.2164
vn -0.7427 0.6337 -0.2163
vn -0.7427 0.6337 -0.2164
vn -0.7428 0.6336 -0.2165
vn -0.6601 -0.7473 0.0766
vn -0.6691 -0.7156 0.2004
vn -0.6652 -0.6606 0.3481
vn -0.6355 -0.5649 0.5263
vn -0.6355 -0.5649 0.5264
vn -0.5548 -0.4012 0.7288
vn -0.3921 -0.1495 0.9077
vn 0.7426 -0.6338 0.2164
vn 0.7429 -0.6335 0.2165
vn 0.7426 -0.6337 0.2164
vn 0.7426 -0.6338 0.2165
vn 0.7427 -0.6337 0.2163
vn 0.7427 -0.6337 0.2164
vn 0.7428 -0.6336 0.2164
vn 0.7427 -0.6336 0.2165
vn 0.7426 -0.6337 0.2165
vn 0.3921 0.1495 -0.9077
vn 0.1569 -0.1495 -0.9762
vn 0.1569 -0.1494 -0.9763
vn 0.1569 -0.1494 -0.9762
vn -0.0764 -0.4012 -0.9128
vn -0.2532 -0.5649 -0.7854
vn -0.3740 -0.6606 -0.6509
vn -0.4567 -0.7156 -0.5285
vn -0.5156 -0.7473 -0.4192
vn -0.5597 -0.7647 -0.3193
vn -0.5596 -0.7648 -0.3193
vn -0.5940 -0.7725 -0.2243
vn -0.6215 -0.7726 -0.1299
vn -0.6435 -0.7648 -0.0313
vn -0.6436 -0.7647 -0.0314
vn 0.7425 -0.6339 0.2165
vn 0.3921 0.1496 -0.9077
vn -0.2532 -0.5649 -0.7853
vn -0.7425 0.6339 -0.2164
vn -0.7427 0.6337 -0.2165
vn -0.1569 0.1495 0.9762
vn -0.7426 0.6338 -0.2165
vn -0.7426 0.6337 -0.2165
vn -0.7427 0.6336 -0.2165
vn 0.0764 0.4012 0.9128
vn 0.2532 0.5649 0.7854
vn 0.3741 0.6605 0.6510
vn 0.4567 0.7156 0.5285
vn 0.5156 0.7473 0.4192
vn 0.5596 0.7648 0.3193
vn 0.5940 0.7726 0.2243
vn 0.6215 0.7726 0.1299
vn 0.6435 0.7648 0.0313
vn 0.6601 0.7473 -0.0766
vn 0.6691 0.7156 -0.2004
vn 0.6692 0.7156 -0.2004
vn 0.6652 0.6606 -0.3481
vn 0.6355 0.5649 -0.5264
vn 0.5548 0.4012 -0.7288
vn 0.2533 0.5649 0.7854
vn 0.6652 0.6605 -0.3481
vn 0.6355 0.5648 -0.5264
usemtl マテリアル.009
s 1
f 139/151/63 137/152/64 135/153/63
f 143/154/63 141/155/64 139/151/63
f 147/156/63 145/157/65 143/154/63
f 149/158/63 147/156/63 128/159/63
f 133/160/63 149/158/63 128/159/63
f 128/159/63 130/161/66 133/160/63
f 145/162/67 147/163/67 146/164/67
f 143/165/68 145/162/68 144/166/68
f 141/167/69 143/165/69 142/168/69
f 139/169/70 141/167/71 140/170/71
f 137/171/72 139/169/72 138/172/72
f 135/173/73 137/171/73 136/174/73
f 105/175/63 103/176/65 101/177/63
f 109/178/63 105/175/63 154/179/63
f 105/175/63 101/177/63 154/179/63
f 173/180/74 87/181/75 134/182/74
f 134/182/74 89/183/76 90/184/74
f 90/184/74 91/185/74 93/186/74
f 93/186/74 94/187/77 95/188/74
f 95/188/74 97/189/74 98/190/74
f 98/190/74 100/191/78 102/192/74
f 102/192/74 104/193/79 106/194/74
f 106/194/74 108/195/80 110/196/74
f 110/196/74 113/197/79 151/198/74
f 151/198/74 153/199/81 155/200/74
f 155/200/74 157/201/82 159/202/74
f 159/202/74 161/203/74 163/204/74
f 116/205/83 114/206/83 115/207/83
f 118/208/84 116/205/85 117/209/86
f 120/210/87 118/211/87 119/212/87
f 122/213/88 120/210/88 121/214/88
f 124/215/89 122/213/89 123/216/89
f 126/217/90 124/215/90 125/218/90
f 128/219/91 126/217/91 127/220/91
f 130/221/92 128/219/93 129/222/93
f 133/223/94 130/221/94 132/224/94
f 163/204/74 165/225/77 167/226/74
f 149/227/95 131/228/95 148/229/95
f 147/230/96 148/229/97 146/231/96
f 96/232/63 112/233/63 128/159/63
f 145/162/67 146/164/67 144/166/67
f 143/165/68 144/166/68 142/168/68
f 141/167/69 142/168/69 140/170/69
f 139/169/70 140/170/71 138/172/70
f 137/171/72 138/172/72 136/174/72
f 167/226/74 168/234/74 169/235/74
f 169/235/74 170/236/98 171/237/74
f 171/237/74 172/238/79 173/180/74
f 173/180/74 134/182/74 95/188/74
f 134/182/74 90/184/74 95/188/74
f 90/184/74 93/186/74 95/188/74
f 95/188/74 98/190/74 110/196/74
f 98/190/74 102/192/74 110/196/74
f 102/192/74 106/194/74 110/196/74
f 110/196/74 151/198/74 163/204/74
f 151/198/74 155/200/74 163/204/74
f 155/200/74 159/202/74 163/204/74
f 163/204/74 167/226/74 173/180/74
f 167/226/74 169/235/74 173/180/74
f 169/235/74 171/237/74 173/180/74
f 173/180/74 95/188/74 110/196/74
f 116/205/83 115/207/83 117/209/99
f 118/208/84 117/209/86 119/239/84
f 120/210/87 119/212/87 121/214/87
f 122/213/88 121/214/88 123/216/100
f 124/215/89 123/216/89 125/218/89
f 126/217/90 125/218/90 127/220/90
f 128/219/91 127/220/91 129/222/91
f 130/221/92 129/222/93 132/224/92
f 133/223/94 132/224/94 131/228/94
f 135/153/63 86/240/63 139/151/63
f 86/240/63 88/241/63 139/151/63
f 109/178/63 107/242/63 105/175/63
f 150/243/63 111/244/101 109/178/63
f 152/245/63 150/243/63 109/178/63
f 154/179/63 152/245/63 109/178/63
f 158/246/65 156/247/65 154/248/65
f 162/249/102 160/250/102 158/251/102
f 164/252/103 166/253/103 165/254/103
f 112/233/63 114/255/63 120/256/63
f 114/255/63 116/257/63 120/256/63
f 116/257/63 118/258/104 120/256/63
f 120/256/63 122/259/105 124/260/63
f 124/260/63 126/261/106 128/159/63
f 147/156/63 143/154/63 128/159/63
f 143/154/63 139/151/63 128/159/63
f 88/241/63 92/262/63 139/151/63
f 92/262/63 96/232/63 139/151/63
f 162/263/107 164/252/107 163/264/107
f 160/265/108 162/263/108 161/266/108
f 120/256/63 124/260/63 112/233/63
f 124/260/63 128/159/63 112/233/63
f 128/159/63 139/151/63 96/232/63
f 147/230/96 149/227/97 148/229/97
f 149/227/95 133/223/95 131/228/95
f 158/267/109 160/265/109 159/268/109
f 156/269/110 158/267/110 157/270/110
f 154/271/111 156/269/111 155/272/111
f 152/273/112 154/271/112 153/274/112
f 150/275/113 152/273/113 151/276/113
f 111/277/114 150/275/114 113/278/114
f 109/279/115 111/277/115 110/280/115
f 107/281/116 109/282/116 108/283/116
f 105/284/117 107/281/118 106/285/118
f 103/286/119 105/284/119 104/287/119
f 101/288/120 103/286/120 102/289/120
f 99/290/121 101/288/121 100/291/121
f 110/196/74 163/204/74 173/180/74
f 166/292/73 167/293/73 165/294/73
f 164/252/103 165/254/103 163/264/103
f 162/263/107 163/264/107 161/266/107
f 160/265/108 161/266/108 159/268/122
f 158/267/109 159/268/109 157/270/109
f 156/269/110 157/270/110 155/272/110
f 154/271/111 155/272/111 153/274/111
f 152/273/112 153/274/112 151/276/112
f 150/275/113 151/276/113 113/278/113
f 111/277/114 113/278/114 110/280/114
f 109/279/115 110/280/115 108/295/115
f 107/281/116 108/283/116 106/285/116
f 105/284/117 106/285/118 104/287/117
f 103/286/119 104/287/119 102/289/123
f 101/288/120 102/289/120 100/291/124
f 99/290/121 100/291/121 98/296/121
