# Blender v3.3.1 OBJ File: ''
# www.blender.org
mtllib galaxyCannonBreak05.mtl
o 立方体_立方体.001
v 0.006430 0.000000 -0.969289
v 0.542300 -0.000000 0.571333
v 0.058131 -0.833851 0.571332
v -0.223907 -0.359648 -0.971642
v -0.223907 0.359648 -0.971642
v 0.058131 0.833851 0.571333
v -0.030472 0.000000 -0.935635
v -0.242097 -0.327935 -0.938044
v 0.038858 -0.800674 0.543471
v 0.503603 -0.000000 0.543289
vt 0.277745 0.551460
vt 0.483118 0.560026
vt 0.304420 0.513297
vt 0.277745 0.239904
vt 0.483118 0.231338
vt 0.456443 0.193175
vt 0.277745 0.551460
vt 0.483118 0.560026
vt 0.420765 0.640244
vt 0.420765 0.640244
vt 0.340098 0.320122
vt 0.304420 0.513297
vn 0.8114 -0.5022 -0.2990
vn 0.8239 -0.4864 -0.2909
vn 0.8031 -0.5123 -0.3043
vn 0.8239 0.4864 -0.2909
vn 0.8114 0.5022 -0.2990
vn 0.8031 0.5123 -0.3043
vn -0.8075 0.5021 0.3097
vn -0.8212 0.4849 0.3010
vn -0.8255 0.4792 0.2981
vn 0.8281 -0.4809 -0.2880
vn 0.8281 0.4809 -0.2880
vn -0.7985 0.5130 0.3151
usemtl マテリアル.001
s 1
f 1/1/1 3/2/2 4/3/3
f 6/4/4 1/5/5 5/6/6
f 7/7/7 9/8/8 10/9/9
f 1/1/1 2/10/10 3/2/2
f 6/4/4 2/11/11 1/5/5
f 7/7/7 8/12/12 9/8/8
