# Blender v3.3.1 OBJ File: ''
# www.blender.org
mtllib playerBullet.mtl
o Cube
v -0.000000 0.000000 -8.850372
v -0.924258 0.000000 0.000000
v 0.924258 0.000000 0.000000
v 0.000000 0.924258 0.000000
v 0.000000 -0.924258 0.000000
v 0.000000 -0.000000 2.296491
vt 0.770936 0.234306
vt 0.578202 0.258959
vt 0.643021 0.000000
vt 0.000000 0.258959
vt 0.192734 0.234306
vt 0.192734 1.000000
vt 0.385468 0.234306
vt 0.192734 0.258959
vt 0.257553 0.000000
vt 0.385468 0.741041
vt 0.578202 0.765695
vt 0.450287 1.000000
vt 0.578202 0.000000
vt 0.385468 1.000000
vt 0.064819 0.000000
vt 0.770936 1.000000
vn 0.6801 0.6801 0.2737
vn -0.7052 0.7052 -0.0736
vn -0.6801 -0.6801 0.2737
vn 0.6801 -0.6801 0.2737
vn 0.7052 -0.7052 -0.0736
vn -0.7052 -0.7052 -0.0736
vn -0.6801 0.6801 0.2737
vn 0.7052 0.7052 -0.0736
usemtl Material
s off
f 3/1/1 4/2/1 6/3/1
f 2/4/2 4/5/2 1/6/2
f 2/7/3 5/8/3 6/9/3
f 5/10/4 3/11/4 6/12/4
f 1/13/5 3/11/5 5/10/5
f 1/14/6 5/8/6 2/7/6
f 6/15/7 4/5/7 2/4/7
f 1/16/8 4/2/8 3/1/8
