# Blender v3.3.1 OBJ File: ''
# www.blender.org
mtllib enemyMiniRobotBreak01.mtl
o 球
v 0.000000 0.236786 -0.231291
v 0.000000 0.254171 0.000000
v 0.045123 0.236786 -0.226847
v 0.000000 0.185300 -0.453693
v 0.088511 0.185300 -0.444976
v 0.000000 0.101691 -0.658661
v 0.128498 0.101691 -0.646005
v 0.000000 -0.010828 -0.838316
v 0.163547 -0.010828 -0.822208
v 0.000000 -0.147933 -0.985756
v 0.192311 -0.147933 -0.966815
v 0.088511 0.236786 -0.213685
v 0.173621 0.185300 -0.419158
v 0.252059 0.101691 -0.608523
v 0.320810 -0.010828 -0.774503
v 0.377232 -0.147933 -0.910720
v 0.365932 0.101691 -0.547657
v 0.465744 -0.010829 -0.697035
v 0.547657 -0.147933 -0.819626
v 0.128498 0.236786 -0.192311
v 0.252059 0.185300 -0.377232
v 0.163547 0.236786 -0.163547
v 0.320810 0.185300 -0.320810
v 0.465744 0.101691 -0.465744
v 0.592779 -0.010829 -0.592779
v 0.697035 -0.147934 -0.697035
v 0.622346 -0.147934 -0.758330
v 0.377232 0.185300 -0.252059
v 0.547657 0.101691 -0.365932
v 0.697035 -0.010829 -0.465744
v 0.819626 -0.147934 -0.547656
v 0.758330 -0.147934 -0.622346
v 0.192311 0.236786 -0.128498
v 0.213685 0.236786 -0.088511
v 0.419158 0.185300 -0.173621
v 0.608523 0.101691 -0.252059
v 0.774503 -0.010829 -0.320810
v 0.910720 -0.147934 -0.377232
v 0.822208 -0.010829 -0.163547
v 0.966815 -0.147934 -0.192311
v 0.226847 0.236786 -0.045123
v 0.444976 0.185300 -0.088511
v 0.646005 0.101691 -0.128498
v 0.231291 0.236786 0.000000
v 0.453694 0.185300 0.000000
v 0.658661 0.101691 0.000000
v 0.838316 -0.010829 0.000000
v 0.985756 -0.147934 0.000000
v 0.966815 -0.147934 0.192311
v 0.226847 0.236786 0.045123
v 0.444976 0.185300 0.088511
v 0.646005 0.101691 0.128498
v 0.822208 -0.010829 0.163547
v 0.213685 0.236786 0.088511
v 0.419158 0.185300 0.173621
v 0.608523 0.101691 0.252059
v 0.774503 -0.010829 0.320810
v 0.910720 -0.147934 0.377232
v 0.819626 -0.147934 0.547656
v 0.192311 0.236786 0.128498
v 0.377232 0.185300 0.252059
v 0.547657 0.101691 0.365932
v 0.697035 -0.010829 0.465744
v 0.320810 0.185300 0.320810
v 0.465744 0.101691 0.465744
v 0.592779 -0.010829 0.592779
v 0.697035 -0.147934 0.697035
v 0.758330 -0.147934 0.622346
v 0.163547 0.236786 0.163547
v 0.128498 0.236786 0.192311
v 0.252059 0.185300 0.377232
v 0.365932 0.101691 0.547657
v 0.465744 -0.010829 0.697035
v 0.547657 -0.147934 0.819626
v 0.622346 -0.147934 0.758330
v 0.088511 0.236786 0.213685
v 0.173621 0.185300 0.419158
v 0.252059 0.101691 0.608523
v 0.320810 -0.010829 0.774503
v 0.377232 -0.147934 0.910720
v 0.045123 0.236786 0.226847
v 0.088511 0.185300 0.444976
v 0.128498 0.101691 0.646005
v 0.163547 -0.010829 0.822208
v 0.192311 -0.147934 0.966815
v 0.000000 0.101691 0.658661
v 0.000000 -0.010829 0.838316
v 0.000000 -0.147934 0.985756
v 0.000000 0.236786 0.231291
v 0.000000 0.185300 0.453693
v -0.045123 0.236786 0.226847
v -0.088511 0.185300 0.444976
v -0.128498 0.101691 0.646005
v -0.163547 -0.010829 0.822208
v -0.192311 -0.147934 0.966815
v -0.320810 -0.010829 0.774503
v -0.377232 -0.147934 0.910720
v -0.088511 0.236786 0.213685
v -0.173621 0.185300 0.419158
v -0.252059 0.101691 0.608523
v -0.128498 0.236786 0.192311
v -0.252059 0.185300 0.377232
v -0.365932 0.101691 0.547657
v -0.465744 -0.010829 0.697035
v -0.547657 -0.147934 0.819626
v -0.592779 -0.010829 0.592779
v -0.697035 -0.147934 0.697035
v -0.622346 -0.147934 0.758330
v -0.163547 0.236786 0.163547
v -0.320810 0.185300 0.320810
v -0.465744 0.101691 0.465744
v -0.192311 0.236786 0.128498
v -0.377232 0.185300 0.252059
v -0.547657 0.101691 0.365932
v -0.697035 -0.010829 0.465744
v -0.819626 -0.147934 0.547656
v -0.758330 -0.147934 0.622346
v -0.774503 -0.010829 0.320810
v -0.910720 -0.147934 0.377232
v -0.213685 0.236786 0.088511
v -0.419158 0.185300 0.173621
v -0.608523 0.101691 0.252059
v -0.226847 0.236786 0.045123
v -0.444976 0.185300 0.088511
v -0.646005 0.101691 0.128498
v -0.822208 -0.010829 0.163547
v -0.966815 -0.147934 0.192311
v -0.838316 -0.010829 0.000000
v -0.985756 -0.147934 0.000000
v -0.231291 0.236786 0.000000
v -0.453694 0.185300 0.000000
v -0.658661 0.101691 0.000000
v -0.226847 0.236786 -0.045123
v -0.444976 0.185300 -0.088511
v -0.646005 0.101691 -0.128498
v -0.822208 -0.010829 -0.163547
v -0.966815 -0.147934 -0.192311
v -0.213685 0.236786 -0.088511
v -0.419158 0.185300 -0.173621
v -0.608523 0.101691 -0.252059
v -0.774503 -0.010829 -0.320810
v -0.910720 -0.147934 -0.377232
v -0.377232 0.185300 -0.252059
v -0.547657 0.101691 -0.365932
v -0.697035 -0.010829 -0.465744
v -0.819626 -0.147934 -0.547656
v -0.192311 0.236786 -0.128498
v -0.163547 0.236786 -0.163547
v -0.320810 0.185300 -0.320810
v -0.465744 0.101691 -0.465744
v -0.592779 -0.010829 -0.592779
v -0.697035 -0.147934 -0.697035
v -0.758330 -0.147934 -0.622346
v -0.252059 0.185300 -0.377232
v -0.365932 0.101691 -0.547657
v -0.465744 -0.010829 -0.697035
v -0.547657 -0.147933 -0.819626
v -0.622346 -0.147934 -0.758330
v -0.128498 0.236786 -0.192311
v -0.088511 0.236786 -0.213685
v -0.173621 0.185300 -0.419158
v -0.252059 0.101691 -0.608523
v -0.320810 -0.010828 -0.774503
v -0.377232 -0.147933 -0.910720
v -0.128498 0.101691 -0.646005
v -0.163547 -0.010828 -0.822208
v -0.192311 -0.147933 -0.966815
v -0.045123 0.236786 -0.226847
v -0.088511 0.185300 -0.444976
v 0.000000 -1.069920 0.985756
v 0.000000 -1.069920 0.985756
vt 0.554774 0.185663
vt 0.523241 0.155690
vt 0.560003 0.178956
vt 0.585339 0.214675
vt 0.595595 0.201519
vt 0.613762 0.241610
vt 0.628651 0.222511
vt 0.638951 0.265434
vt 0.657901 0.241126
vt 0.659937 0.285231
vt 0.682220 0.256647
vt 0.563823 0.171359
vt 0.603089 0.186617
vt 0.639531 0.200876
vt 0.671748 0.213590
vt 0.628269 0.357660
vt 0.594580 0.374254
vt 0.594577 0.342293
vt 0.645983 0.177537
vt 0.679959 0.183884
vt 0.628271 0.384841
vt 0.594582 0.408935
vt 0.566089 0.163163
vt 0.607533 0.170540
vt 0.566712 0.154684
vt 0.608756 0.153908
vt 0.647759 0.153390
vt 0.682220 0.153151
vt 0.628273 0.445008
vt 0.594582 0.445004
vt 0.594582 0.426970
vt 0.606712 0.137358
vt 0.644791 0.129364
vt 0.678442 0.122571
vt 0.628272 0.475683
vt 0.594582 0.481073
vt 0.594582 0.463038
vt 0.565670 0.146247
vt 0.563002 0.138177
vt 0.601479 0.121527
vt 0.637193 0.106381
vt 0.668772 0.093320
vt 0.628271 0.505179
vt 0.594580 0.515757
vt 0.653580 0.066521
vt 0.628269 0.532364
vt 0.594577 0.547724
vt 0.558811 0.130783
vt 0.593257 0.107024
vt 0.625257 0.085325
vt 0.553257 0.124350
vt 0.582363 0.094405
vt 0.609442 0.067006
vt 0.633452 0.043205
vt 0.677139 0.051334
vt 0.653470 0.023917
vt 0.624905 0.001648
vt 0.546555 0.119125
vt 0.569216 0.084156
vt 0.590355 0.052126
vt 0.609159 0.024267
vt 0.538961 0.115309
vt 0.554321 0.076670
vt 0.568730 0.041259
vt 0.581636 0.010435
vt 0.260284 0.411364
vt 0.226589 0.427965
vt 0.226589 0.396001
vt 0.260284 0.438547
vt 0.226589 0.462648
vt 0.530768 0.113048
vt 0.538250 0.072236
vt 0.545399 0.034821
vt 0.551941 0.002241
vt 0.521621 0.071023
vt 0.521257 0.033060
vt 0.521214 0.000000
vt 0.260284 0.498717
vt 0.226589 0.498717
vt 0.226589 0.480682
vt 0.522291 0.112430
vt 0.513854 0.113478
vt 0.505072 0.073078
vt 0.497232 0.036044
vt 0.490636 0.003798
vt 0.260284 0.529391
vt 0.226589 0.534785
vt 0.226589 0.516751
vt 0.505784 0.116151
vt 0.489241 0.078323
vt 0.474249 0.043658
vt 0.461384 0.013488
vt 0.260284 0.558886
vt 0.226589 0.569468
vt 0.498388 0.120348
vt 0.474734 0.086555
vt 0.453189 0.055609
vt 0.434579 0.028699
vt 0.260284 0.586069
vt 0.226589 0.601432
vt 0.434862 0.071438
vt 0.411254 0.048846
vt 0.392193 0.030550
vt 0.419621 0.006860
vt 0.491953 0.125907
vt 0.462111 0.097458
vt 0.486724 0.132613
vt 0.451855 0.110614
vt 0.419973 0.090537
vt 0.392303 0.073155
vt 0.369910 0.059134
vt 0.378457 0.100691
vt 0.628268 0.793828
vt 0.661964 0.777227
vt 0.661964 0.809191
vt 0.482904 0.140210
vt 0.444361 0.125516
vt 0.409093 0.112172
vt 0.480639 0.148406
vt 0.439917 0.141593
vt 0.402642 0.135512
vt 0.370245 0.130396
vt 0.628268 0.766645
vt 0.661964 0.742545
vt 0.367985 0.161129
vt 0.628268 0.706476
vt 0.661964 0.706476
vt 0.661964 0.724510
vt 0.480015 0.156885
vt 0.438694 0.158226
vt 0.400866 0.159659
vt 0.481057 0.165322
vt 0.440738 0.174775
vt 0.403834 0.183685
vt 0.371762 0.191709
vt 0.628268 0.675802
vt 0.661964 0.670407
vt 0.661964 0.688442
vt 0.628268 0.646307
vt 0.661964 0.635724
vt 0.483725 0.173393
vt 0.445972 0.190606
vt 0.411432 0.206668
vt 0.381433 0.220961
vt 0.487917 0.180787
vt 0.454193 0.205109
vt 0.423368 0.227723
vt 0.396624 0.247759
vt 0.628268 0.619124
vt 0.661964 0.603761
vt 0.374991 0.264448
vt 0.416753 0.271076
vt 0.398660 0.291865
vt 0.493470 0.187220
vt 0.465087 0.217728
vt 0.439183 0.246043
vt 0.500172 0.192444
vt 0.478234 0.227977
vt 0.458269 0.260922
vt 0.441046 0.290014
vt 0.427225 0.314133
vt 0.507766 0.196261
vt 0.493129 0.235463
vt 0.479894 0.271790
vt 0.468568 0.303845
vt 0.628269 0.619124
vt 0.594573 0.635724
vt 0.594573 0.603761
vt 0.509200 0.239897
vt 0.503225 0.278228
vt 0.498264 0.312039
vt 0.628269 0.646307
vt 0.594573 0.670407
vt 0.515959 0.198521
vt 0.524436 0.199140
vt 0.525829 0.241110
vt 0.527367 0.279989
vt 0.528991 0.314280
vt 0.628269 0.706476
vt 0.594573 0.706476
vt 0.594573 0.688442
vt 0.542378 0.239055
vt 0.551392 0.277005
vt 0.559568 0.310483
vt 0.628269 0.737150
vt 0.594573 0.742545
vt 0.594573 0.724510
vt 0.532873 0.198092
vt 0.540944 0.195418
vt 0.558209 0.233811
vt 0.574376 0.269391
vt 0.588821 0.300792
vt 0.628269 0.766645
vt 0.594573 0.777227
vt 0.595436 0.257440
vt 0.615625 0.285581
vt 0.628269 0.793828
vt 0.594573 0.809191
vt 0.548339 0.191222
vt 0.572716 0.225578
vt 0.632509 0.308921
vt 0.628272 0.414335
vt 0.260284 0.468043
vt 0.628268 0.737150
vt 0.628269 0.675802
vt 0.073143 0.856044
vt 0.661964 0.837208
vt 0.888552 0.665298
vt 0.144490 0.856044
vt 0.594573 0.575744
vt 0.260284 0.457803
vt 0.683993 0.226593
vt 0.594573 0.314280
vt 0.851640 0.089596
vt 0.769913 0.226596
vt 0.226589 0.367985
vt 0.000000 0.719083
vn 0.0074 0.9972 -0.0750
vn 0.0222 0.9740 -0.2255
vn 0.0372 0.9253 -0.3774
vn 0.0522 0.8463 -0.5301
vn 0.0669 0.7307 -0.6794
vn 0.0219 0.9972 -0.0721
vn 0.0658 0.9740 -0.2168
vn 0.1101 0.9253 -0.3629
vn 0.1546 0.8463 -0.5097
vn 0.1982 0.7307 -0.6533
vn 0.1788 0.9253 -0.3345
vn 0.2511 0.8463 -0.4697
vn 0.3218 0.7307 -0.6021
vn 0.0355 0.9972 -0.0664
vn 0.1068 0.9740 -0.1998
vn 0.0478 0.9972 -0.0582
vn 0.1437 0.9740 -0.1751
vn 0.2406 0.9253 -0.2932
vn 0.3379 0.8463 -0.4117
vn 0.4331 0.7307 -0.5278
vn 0.2932 0.9253 -0.2406
vn 0.4117 0.8463 -0.3379
vn 0.5278 0.7307 -0.4331
vn 0.0582 0.9972 -0.0478
vn 0.1751 0.9740 -0.1437
vn 0.0664 0.9972 -0.0355
vn 0.1998 0.9740 -0.1068
vn 0.3345 0.9253 -0.1788
vn 0.4697 0.8463 -0.2511
vn 0.6021 0.7307 -0.3218
vn 0.5097 0.8463 -0.1546
vn 0.6533 0.7307 -0.1982
vn 0.0721 0.9972 -0.0219
vn 0.2168 0.9740 -0.0658
vn 0.3629 0.9253 -0.1101
vn 0.0750 0.9972 -0.0074
vn 0.2255 0.9740 -0.0222
vn 0.3774 0.9253 -0.0372
vn 0.5301 0.8463 -0.0522
vn 0.6794 0.7307 -0.0669
vn 0.6794 0.7307 0.0669
vn 0.0750 0.9972 0.0074
vn 0.2255 0.9740 0.0222
vn 0.3774 0.9253 0.0372
vn 0.5301 0.8463 0.0522
vn 0.0721 0.9972 0.0219
vn 0.2168 0.9740 0.0658
vn 0.3629 0.9253 0.1101
vn 0.5097 0.8463 0.1546
vn 0.6533 0.7307 0.1982
vn 0.6021 0.7307 0.3218
vn 0.0664 0.9972 0.0355
vn 0.1998 0.9740 0.1068
vn 0.3345 0.9253 0.1788
vn 0.4697 0.8463 0.2511
vn 0.1751 0.9740 0.1437
vn 0.2932 0.9253 0.2406
vn 0.4117 0.8463 0.3379
vn 0.5278 0.7307 0.4331
vn 0.0582 0.9972 0.0478
vn 0.0478 0.9972 0.0582
vn 0.1437 0.9740 0.1751
vn 0.2406 0.9253 0.2932
vn 0.3379 0.8463 0.4117
vn 0.4331 0.7307 0.5278
vn 0.1068 0.9740 0.1998
vn 0.1788 0.9253 0.3345
vn 0.2511 0.8463 0.4697
vn 0.3218 0.7307 0.6021
vn 0.0355 0.9972 0.0664
vn 0.0219 0.9972 0.0721
vn 0.0658 0.9740 0.2168
vn 0.1101 0.9253 0.3629
vn 0.1546 0.8463 0.5097
vn 0.1982 0.7307 0.6533
vn 0.0372 0.9253 0.3774
vn 0.0522 0.8463 0.5301
vn 0.0669 0.7307 0.6794
vn 0.0074 0.9972 0.0750
vn 0.0222 0.9740 0.2255
vn -0.0074 0.9972 0.0750
vn -0.0222 0.9740 0.2255
vn -0.0372 0.9253 0.3774
vn -0.0522 0.8463 0.5301
vn -0.0669 0.7307 0.6794
vn -0.1546 0.8463 0.5097
vn -0.1982 0.7307 0.6533
vn -0.0219 0.9972 0.0721
vn -0.0658 0.9740 0.2168
vn -0.1101 0.9253 0.3629
vn -0.0355 0.9972 0.0664
vn -0.1068 0.9740 0.1998
vn -0.1788 0.9253 0.3345
vn -0.2511 0.8463 0.4697
vn -0.3218 0.7307 0.6021
vn -0.3379 0.8463 0.4117
vn -0.4331 0.7307 0.5278
vn -0.0478 0.9972 0.0582
vn -0.1437 0.9740 0.1751
vn -0.2406 0.9253 0.2932
vn -0.0582 0.9972 0.0478
vn -0.1751 0.9740 0.1437
vn -0.2932 0.9253 0.2406
vn -0.4117 0.8463 0.3379
vn -0.5278 0.7307 0.4331
vn -0.6021 0.7307 0.3218
vn -0.0664 0.9972 0.0355
vn -0.1998 0.9740 0.1068
vn -0.3345 0.9253 0.1788
vn -0.4697 0.8463 0.2511
vn -0.0721 0.9972 0.0219
vn -0.2168 0.9740 0.0658
vn -0.3629 0.9253 0.1101
vn -0.5097 0.8463 0.1546
vn -0.6533 0.7307 0.1982
vn -0.6794 0.7307 0.0669
vn -0.0750 0.9972 0.0074
vn -0.2255 0.9740 0.0222
vn -0.3774 0.9253 0.0372
vn -0.5301 0.8463 0.0522
vn -0.2255 0.9740 -0.0222
vn -0.3774 0.9253 -0.0372
vn -0.5301 0.8463 -0.0522
vn -0.6794 0.7307 -0.0669
vn -0.0750 0.9972 -0.0074
vn -0.0721 0.9972 -0.0219
vn -0.2168 0.9740 -0.0658
vn -0.3629 0.9253 -0.1101
vn -0.5097 0.8463 -0.1546
vn -0.6533 0.7307 -0.1982
vn -0.3345 0.9253 -0.1788
vn -0.4697 0.8463 -0.2511
vn -0.6021 0.7307 -0.3218
vn -0.0664 0.9972 -0.0355
vn -0.1998 0.9740 -0.1068
vn -0.0582 0.9972 -0.0478
vn -0.1751 0.9740 -0.1437
vn -0.2932 0.9253 -0.2406
vn -0.4117 0.8463 -0.3379
vn -0.5278 0.7307 -0.4331
vn -0.2406 0.9253 -0.2932
vn -0.3379 0.8463 -0.4117
vn -0.4331 0.7307 -0.5278
vn -0.0478 0.9972 -0.0582
vn -0.1437 0.9740 -0.1751
vn -0.0355 0.9972 -0.0664
vn -0.1068 0.9740 -0.1998
vn -0.1788 0.9253 -0.3345
vn -0.2511 0.8463 -0.4697
vn -0.3218 0.7307 -0.6021
vn -0.1546 0.8463 -0.5097
vn -0.1982 0.7307 -0.6533
vn -0.0219 0.9972 -0.0721
vn -0.0658 0.9740 -0.2168
vn -0.1101 0.9253 -0.3629
vn -0.0074 0.9972 -0.0750
vn -0.0222 0.9740 -0.2255
vn -0.0372 0.9253 -0.3774
vn -0.0522 0.8463 -0.5301
vn -0.0669 0.7307 -0.6794
vn -0.2772 0.8995 -0.3378
vn 0.6344 -0.0001 0.7730
vn 0.4715 -0.0000 0.8819
vn 0.2902 -0.0000 0.9570
vn 0.0980 -0.0000 0.9952
vn -0.0981 0.0001 0.9952
vn -0.2904 -0.0000 0.9569
vn -0.3827 0.0027 0.9239
vn -0.6345 -0.0000 0.7730
vn 0.2923 0.8875 -0.3561
vn 0.3554 0.8881 -0.2916
vn -0.7730 -0.0001 0.6344
vn -0.8820 -0.0000 0.4713
vn -0.9569 -0.0000 0.2903
vn -0.9952 -0.0000 0.0980
vn -0.9952 0.0000 -0.0979
vn -0.9569 -0.0000 -0.2903
vn -0.9239 0.0026 -0.3827
vn -0.7731 0.0000 -0.6343
vn 0.2896 0.9272 0.2377
vn 0.2379 0.9270 0.2899
vn -0.6344 -0.0000 -0.7730
vn -0.4715 -0.0000 -0.8819
vn -0.2903 0.0000 -0.9569
vn -0.0980 -0.0000 -0.9952
vn 0.0981 -0.0001 -0.9952
vn 0.2903 -0.0001 -0.9569
vn 0.3827 0.0026 -0.9239
vn 0.6345 -0.0001 -0.7730
vn -0.2434 0.9235 0.2966
vn -0.2930 0.9254 0.2405
vn 0.7730 0.0000 -0.6344
vn 0.8820 0.0000 -0.4713
vn 0.9569 0.0001 -0.2903
vn 0.9952 -0.0000 -0.0980
vn 0.9952 -0.0001 0.0979
vn 0.9569 -0.0000 0.2903
vn 0.9239 0.0027 0.3827
vn 0.7731 0.0001 0.6343
vn -0.3363 0.9004 -0.2760
usemtl マテリアル
s 1
f 1/1/1 2/2/1 3/3/1
f 4/4/2 3/3/2 5/5/2
f 6/6/3 5/5/3 7/7/3
f 8/8/4 7/7/4 9/9/4
f 10/10/5 9/9/5 11/11/5
f 3/3/6 2/2/6 12/12/6
f 3/3/7 13/13/7 5/5/7
f 5/5/8 14/14/8 7/7/8
f 7/7/9 15/15/9 9/9/9
f 9/16/10 16/17/10 11/18/10
f 13/13/11 17/19/11 14/14/11
f 14/14/12 18/20/12 15/15/12
f 15/21/13 19/22/13 16/17/13
f 12/12/14 2/2/14 20/23/14
f 12/12/15 21/24/15 13/13/15
f 20/23/16 2/2/16 22/25/16
f 20/23/17 23/26/17 21/24/17
f 21/24/18 24/27/18 17/19/18
f 17/19/19 25/28/19 18/20/19
f 25/29/20 26/30/20 27/31/20
f 24/27/21 28/32/21 29/33/21
f 24/27/22 30/34/22 25/28/22
f 30/35/23 31/36/23 32/37/23
f 22/25/24 2/2/24 33/38/24
f 23/26/25 33/38/25 28/32/25
f 33/38/26 2/2/26 34/39/26
f 33/38/27 35/40/27 28/32/27
f 28/32/28 36/41/28 29/33/28
f 29/33/29 37/42/29 30/34/29
f 31/36/30 37/43/30 38/44/30
f 36/41/31 39/45/31 37/42/31
f 38/44/32 39/46/32 40/47/32
f 34/39/33 2/2/33 41/48/33
f 34/39/34 42/49/34 35/40/34
f 36/41/35 42/49/35 43/50/35
f 41/48/36 2/2/36 44/51/36
f 41/48/37 45/52/37 42/49/37
f 42/49/38 46/53/38 43/50/38
f 43/50/39 47/54/39 39/45/39
f 40/55/40 47/54/40 48/56/40
f 47/54/41 49/57/41 48/56/41
f 44/51/42 2/2/42 50/58/42
f 45/52/43 50/58/43 51/59/43
f 46/53/44 51/59/44 52/60/44
f 47/54/45 52/60/45 53/61/45
f 50/58/46 2/2/46 54/62/46
f 50/58/47 55/63/47 51/59/47
f 51/59/48 56/64/48 52/60/48
f 53/61/49 56/64/49 57/65/49
f 53/66/50 58/67/50 49/68/50
f 57/69/51 59/70/51 58/67/51
f 54/62/52 2/2/52 60/71/52
f 55/63/53 60/71/53 61/72/53
f 56/64/54 61/72/54 62/73/54
f 57/65/55 62/73/55 63/74/55
f 60/71/56 64/75/56 61/72/56
f 61/72/57 65/76/57 62/73/57
f 63/74/58 65/76/58 66/77/58
f 66/78/59 67/79/59 68/80/59
f 60/71/60 2/2/60 69/81/60
f 69/81/61 2/2/61 70/82/61
f 64/75/62 70/82/62 71/83/62
f 65/76/63 71/83/63 72/84/63
f 66/77/64 72/84/64 73/85/64
f 73/86/65 74/87/65 75/88/65
f 71/83/66 76/89/66 77/90/66
f 72/84/67 77/90/67 78/91/67
f 73/85/68 78/91/68 79/92/68
f 74/87/69 79/93/69 80/94/69
f 70/82/70 2/2/70 76/89/70
f 76/89/71 2/2/71 81/95/71
f 76/89/72 82/96/72 77/90/72
f 78/91/73 82/96/73 83/97/73
f 79/92/74 83/97/74 84/98/74
f 80/94/75 84/99/75 85/100/75
f 82/96/76 86/101/76 83/97/76
f 83/97/77 87/102/77 84/98/77
f 84/98/78 88/103/78 85/104/78
f 81/95/79 2/2/79 89/105/79
f 81/95/80 90/106/80 82/96/80
f 89/105/81 2/2/81 91/107/81
f 90/106/82 91/107/82 92/108/82
f 86/101/83 92/108/83 93/109/83
f 87/102/84 93/109/84 94/110/84
f 88/103/85 94/110/85 95/111/85
f 93/109/86 96/112/86 94/110/86
f 94/113/87 97/114/87 95/115/87
f 91/107/88 2/2/88 98/116/88
f 91/107/89 99/117/89 92/108/89
f 92/108/90 100/118/90 93/109/90
f 98/116/91 2/2/91 101/119/91
f 98/116/92 102/120/92 99/117/92
f 99/117/93 103/121/93 100/118/93
f 100/118/94 104/122/94 96/112/94
f 96/123/95 105/124/95 97/114/95
f 103/121/96 106/125/96 104/122/96
f 106/126/97 107/127/97 108/128/97
f 101/119/98 2/2/98 109/129/98
f 101/119/99 110/130/99 102/120/99
f 102/120/100 111/131/100 103/121/100
f 109/129/101 2/2/101 112/132/101
f 110/130/102 112/132/102 113/133/102
f 111/131/103 113/133/103 114/134/103
f 111/131/104 115/135/104 106/125/104
f 115/136/105 116/137/105 117/138/105
f 116/137/106 118/139/106 119/140/106
f 112/132/107 2/2/107 120/141/107
f 112/132/108 121/142/108 113/133/108
f 113/133/109 122/143/109 114/134/109
f 114/134/110 118/144/110 115/135/110
f 120/141/111 2/2/111 123/145/111
f 120/141/112 124/146/112 121/142/112
f 122/143/113 124/146/113 125/147/113
f 122/143/114 126/148/114 118/144/114
f 119/140/115 126/149/115 127/150/115
f 127/151/116 128/152/116 129/153/116
f 123/145/117 2/2/117 130/154/117
f 123/145/118 131/155/118 124/146/118
f 124/146/119 132/156/119 125/147/119
f 125/147/120 128/152/120 126/148/120
f 131/155/121 133/157/121 134/158/121
f 132/156/122 134/158/122 135/159/122
f 128/152/123 135/159/123 136/160/123
f 128/152/124 137/161/124 129/153/124
f 130/154/125 2/2/125 133/157/125
f 133/157/126 2/2/126 138/162/126
f 133/157/127 139/163/127 134/158/127
f 134/158/128 140/164/128 135/159/128
f 136/160/129 140/164/129 141/165/129
f 136/166/130 142/167/130 137/168/130
f 140/164/131 143/169/131 144/170/131
f 141/165/132 144/170/132 145/171/132
f 141/172/133 146/173/133 142/167/133
f 138/162/134 2/2/134 147/174/134
f 139/163/135 147/174/135 143/169/135
f 147/174/136 2/2/136 148/175/136
f 147/174/137 149/176/137 143/169/137
f 143/169/138 150/177/138 144/170/138
f 145/171/139 150/177/139 151/178/139
f 151/179/140 152/180/140 153/181/140
f 150/177/141 154/182/141 155/183/141
f 151/178/142 155/183/142 156/184/142
f 156/185/143 157/186/143 158/187/143
f 148/175/144 2/2/144 159/188/144
f 149/176/145 159/188/145 154/182/145
f 159/188/146 2/2/146 160/189/146
f 154/182/147 160/189/147 161/190/147
f 155/183/148 161/190/148 162/191/148
f 156/184/149 162/191/149 163/192/149
f 157/186/150 163/193/150 164/194/150
f 163/192/151 165/195/151 166/196/151
f 164/194/152 166/197/152 167/198/152
f 160/189/153 2/2/153 168/199/153
f 160/189/154 169/200/154 161/190/154
f 162/191/155 169/200/155 165/195/155
f 168/199/156 2/2/156 1/1/156
f 168/199/157 4/4/157 169/200/157
f 169/200/158 6/6/158 165/195/158
f 165/195/159 8/8/159 166/196/159
f 166/196/160 10/10/160 167/201/160
f 4/4/2 1/1/2 3/3/2
f 6/6/3 4/4/3 5/5/3
f 8/8/4 6/6/4 7/7/4
f 10/10/5 8/8/5 9/9/5
f 3/3/7 12/12/7 13/13/7
f 5/5/8 13/13/8 14/14/8
f 7/7/9 14/14/9 15/15/9
f 9/16/10 15/21/10 16/17/10
f 13/13/11 21/24/11 17/19/11
f 14/14/12 17/19/12 18/20/12
f 15/21/13 18/202/13 19/22/13
f 12/12/15 20/23/15 21/24/15
f 20/23/17 22/25/17 23/26/17
f 21/24/18 23/26/18 24/27/18
f 17/19/19 24/27/19 25/28/19
f 27/31/20 19/22/20 18/202/20
f 18/202/20 25/29/20 27/31/20
f 24/27/21 23/26/21 28/32/21
f 24/27/22 29/33/22 30/34/22
f 32/37/23 26/30/23 25/29/23
f 25/29/23 30/35/23 32/37/23
f 23/26/25 22/25/25 33/38/25
f 33/38/27 34/39/27 35/40/27
f 28/32/28 35/40/28 36/41/28
f 29/33/29 36/41/29 37/42/29
f 31/36/30 30/35/30 37/43/30
f 36/41/31 43/50/31 39/45/31
f 38/44/32 37/43/32 39/46/32
f 34/39/34 41/48/34 42/49/34
f 36/41/35 35/40/35 42/49/35
f 41/48/37 44/51/37 45/52/37
f 42/49/38 45/52/38 46/53/38
f 43/50/39 46/53/39 47/54/39
f 40/55/40 39/45/40 47/54/40
f 47/54/41 53/61/41 49/57/41
f 45/52/43 44/51/43 50/58/43
f 46/53/44 45/52/44 51/59/44
f 47/54/45 46/53/45 52/60/45
f 50/58/47 54/62/47 55/63/47
f 51/59/48 55/63/48 56/64/48
f 53/61/49 52/60/49 56/64/49
f 53/66/50 57/69/50 58/67/50
f 57/69/51 63/203/51 59/70/51
f 55/63/53 54/62/53 60/71/53
f 56/64/54 55/63/54 61/72/54
f 57/65/55 56/64/55 62/73/55
f 60/71/56 69/81/56 64/75/56
f 61/72/57 64/75/57 65/76/57
f 63/74/58 62/73/58 65/76/58
f 68/80/59 59/70/59 63/203/59
f 63/203/59 66/78/59 68/80/59
f 64/75/62 69/81/62 70/82/62
f 65/76/63 64/75/63 71/83/63
f 66/77/64 65/76/64 72/84/64
f 75/88/65 67/79/65 66/78/65
f 66/78/65 73/86/65 75/88/65
f 71/83/66 70/82/66 76/89/66
f 72/84/67 71/83/67 77/90/67
f 73/85/68 72/84/68 78/91/68
f 74/87/69 73/86/69 79/93/69
f 76/89/72 81/95/72 82/96/72
f 78/91/73 77/90/73 82/96/73
f 79/92/74 78/91/74 83/97/74
f 80/94/75 79/93/75 84/99/75
f 82/96/76 90/106/76 86/101/76
f 83/97/77 86/101/77 87/102/77
f 84/98/78 87/102/78 88/103/78
f 81/95/80 89/105/80 90/106/80
f 90/106/82 89/105/82 91/107/82
f 86/101/83 90/106/83 92/108/83
f 87/102/84 86/101/84 93/109/84
f 88/103/85 87/102/85 94/110/85
f 93/109/86 100/118/86 96/112/86
f 94/113/87 96/123/87 97/114/87
f 91/107/89 98/116/89 99/117/89
f 92/108/90 99/117/90 100/118/90
f 98/116/92 101/119/92 102/120/92
f 99/117/93 102/120/93 103/121/93
f 100/118/94 103/121/94 104/122/94
f 96/123/95 104/204/95 105/124/95
f 103/121/96 111/131/96 106/125/96
f 108/128/97 105/124/97 104/204/97
f 104/204/97 106/126/97 108/128/97
f 101/119/99 109/129/99 110/130/99
f 102/120/100 110/130/100 111/131/100
f 110/130/102 109/129/102 112/132/102
f 111/131/103 110/130/103 113/133/103
f 111/131/104 114/134/104 115/135/104
f 117/138/105 107/127/105 106/126/105
f 106/126/105 115/136/105 117/138/105
f 116/137/106 115/136/106 118/139/106
f 112/132/108 120/141/108 121/142/108
f 113/133/109 121/142/109 122/143/109
f 114/134/110 122/143/110 118/144/110
f 120/141/112 123/145/112 124/146/112
f 122/143/113 121/142/113 124/146/113
f 122/143/114 125/147/114 126/148/114
f 119/140/115 118/139/115 126/149/115
f 127/151/116 126/148/116 128/152/116
f 123/145/118 130/154/118 131/155/118
f 124/146/119 131/155/119 132/156/119
f 125/147/120 132/156/120 128/152/120
f 131/155/121 130/154/121 133/157/121
f 132/156/122 131/155/122 134/158/122
f 128/152/123 132/156/123 135/159/123
f 128/152/124 136/160/124 137/161/124
f 133/157/127 138/162/127 139/163/127
f 134/158/128 139/163/128 140/164/128
f 136/160/129 135/159/129 140/164/129
f 136/166/130 141/172/130 142/167/130
f 140/164/131 139/163/131 143/169/131
f 141/165/132 140/164/132 144/170/132
f 141/172/133 145/205/133 146/173/133
f 139/163/135 138/162/135 147/174/135
f 147/174/137 148/175/137 149/176/137
f 143/169/138 149/176/138 150/177/138
f 145/171/139 144/170/139 150/177/139
f 153/181/140 146/173/140 145/205/140
f 145/205/140 151/179/140 153/181/140
f 150/177/141 149/176/141 154/182/141
f 151/178/142 150/177/142 155/183/142
f 158/187/143 152/180/143 151/179/143
f 151/179/143 156/185/143 158/187/143
f 149/176/145 148/175/145 159/188/145
f 154/182/147 159/188/147 160/189/147
f 155/183/148 154/182/148 161/190/148
f 156/184/149 155/183/149 162/191/149
f 157/186/150 156/185/150 163/193/150
f 163/192/151 162/191/151 165/195/151
f 164/194/152 163/193/152 166/197/152
f 160/189/154 168/199/154 169/200/154
f 162/191/155 161/190/155 169/200/155
f 168/199/157 1/1/157 4/4/157
f 169/200/158 4/4/158 6/6/158
f 165/195/159 6/6/159 8/8/159
f 166/196/160 8/8/160 10/10/160
f 67/206/161 75/88/162 74/87/163 80/94/164 85/100/165 88/207/166 95/115/167 97/114/168 105/124/169 108/208/170 107/209/171 117/138/172 116/137/173 119/140/174 127/150/175 129/210/176 137/168/177 142/167/178 146/173/179 153/211/180 152/212/181 158/187/182 157/186/183 164/194/184 167/198/185 10/213/186 11/18/187 16/17/188 19/22/189 27/214/190 26/215/191 32/37/192 31/36/193 38/44/194 40/47/195 48/216/196 49/68/197 58/67/198 59/70/199 68/217/200
l 170 171
