# Blender v3.3.1 OBJ File: ''
# www.blender.org
mtllib enemyMiniRobotBreak05.mtl
o 球
v 0.000000 0.372353 -0.985756
v 0.192311 0.372353 -0.966815
v -0.985756 0.372353 0.000000
v -0.966815 0.372353 -0.192311
v -0.910720 0.372353 -0.377232
v -0.819626 0.372353 -0.547656
v -0.697035 0.372353 -0.697035
v -0.758330 0.372353 -0.622346
v -0.547657 0.372353 -0.819626
v -0.622346 0.372353 -0.758330
v -0.377232 0.372353 -0.910720
v -0.192311 0.372353 -0.966815
v -0.697034 -0.549633 -0.697034
v -0.942219 -0.186916 -1.078203
v -0.622345 -0.549633 -0.758330
v 0.000000 0.108051 -0.985756
v -0.192311 -0.023486 -0.966814
v -0.192311 -0.549633 -0.966814
v -0.377232 -0.549633 -0.910719
v -0.985756 0.108051 0.000000
v -0.819626 -0.549633 -0.547656
v 0.192311 -0.549633 -0.966814
v 0.192311 -0.023486 -0.966815
v -0.910719 -0.549633 -0.377232
v -0.547656 -0.549633 -0.819625
v -0.966815 -0.549633 -0.192311
v -0.966814 -0.023486 -0.192311
v -0.614719 -0.549633 -0.410742
v -0.758330 -0.549633 -0.622345
v 0.000000 -0.549633 -0.985755
v -0.410742 -0.549633 -0.614719
v -0.522776 -0.549633 -0.522775
v -0.985756 -0.155023 -0.000000
v -1.112598 -0.023486 -0.192311
v -1.131539 0.108051 0.000000
v -1.131539 -0.155023 -0.000000
v 0.000000 -0.155023 -0.985756
v 0.192311 -0.023486 -1.122500
v 0.000000 0.108051 -1.141441
v 0.000000 -0.155023 -1.141441
v -0.192311 -0.023486 -1.122500
v -1.078203 -0.186916 -0.942219
v -1.016908 -0.186916 -1.016908
vt 0.227711 0.945179
vt 0.245745 0.856037
vt 0.245745 0.945179
vt 0.594577 0.342293
vt 0.529618 0.314280
vt 0.594573 0.314280
vt 0.497291 0.809191
vt 0.367985 0.809191
vt 0.367985 0.777227
vt 0.594573 0.603761
vt 0.529618 0.575744
vt 0.594573 0.575744
vt 0.594573 0.688442
vt 0.367985 0.670407
vt 0.594573 0.670407
vt 0.594573 0.809191
vt 0.529618 0.837208
vt 0.594573 0.635724
vt 0.367985 0.635724
vt 0.594573 0.742545
vt 0.367985 0.742545
vt 0.367985 0.603761
vt 0.497291 0.603761
vt 0.291180 0.096026
vt 0.326909 0.066704
vt 0.336976 0.081772
vt 0.316684 0.143741
vt 0.360914 0.130324
vt 0.367985 0.165871
vt 0.306281 0.118628
vt 0.347044 0.096839
vt 0.353979 0.113582
vt 0.814219 0.532254
vt 0.790544 0.569468
vt 0.786877 0.532258
vt 0.464965 0.837208
vt 0.801484 0.356802
vt 0.775837 0.320733
vt 0.805037 0.320733
vt 0.801823 0.430631
vt 0.775027 0.466811
vt 0.772642 0.430627
vt 0.464965 0.314280
vt 0.367989 0.342293
vt 0.367985 0.314280
vt 0.888379 0.562027
vt 0.860363 0.529701
vt 0.888379 0.497374
vt 0.480047 0.901861
vt 0.452034 0.869538
vt 0.480047 0.837208
vt 0.775027 0.394674
vt 0.804208 0.394677
vt 0.775837 0.392871
vt 0.772285 0.356802
vt 0.366846 0.896599
vt 0.338829 0.864272
vt 0.366846 0.831945
vt 0.323695 0.795877
vt 0.299905 0.759808
vt 0.327248 0.759808
vt 0.594573 0.724510
vt 0.367985 0.724510
vt 0.260284 0.457803
vt 0.346202 0.594580
vt 0.262060 0.684385
vt 0.227711 0.856037
vt 0.683993 0.226593
vt 0.682220 0.226582
vt 0.209677 0.856037
vt 0.497295 0.342293
vt 0.594573 0.777227
vt 0.367985 0.688441
vt 0.594573 0.837208
vt 0.301281 0.041076
vt 0.817886 0.569465
vt 0.464965 0.575744
vt 0.367985 0.837208
vt 0.804208 0.466814
vt 0.805037 0.392871
vt 0.296353 0.795877
vt 0.683993 0.000000
vt 0.768137 0.089803
vt 0.209677 0.945179
vn -0.3980 -0.7787 -0.4850
vn 0.0980 0.0000 -0.9952
vn -0.2903 -0.0000 -0.9569
vn -0.9952 -0.0000 -0.0980
vn -0.7730 0.0000 -0.6344
vn -0.0980 -0.0000 -0.9952
vn -0.8819 -0.0000 -0.4714
vn -0.4714 -0.0000 -0.8819
vn -0.9569 0.0000 -0.2903
vn -0.0000 -1.0000 -0.0000
vn 0.0000 0.8254 -0.5646
vn 0.5646 -0.8254 -0.0000
vn 0.5646 0.8254 0.0000
vn -0.5646 0.8254 0.0000
vn -0.5646 -0.8254 -0.0000
vn 0.0000 -0.8254 -0.5646
vn -0.6344 -0.0000 -0.7730
vn -0.1794 0.6133 0.7692
vn -0.7051 0.0035 0.7091
vn -0.7071 0.0000 0.7071
vn 0.0059 -0.3660 -0.9306
vn 0.2379 0.9270 0.2899
vn 0.7071 -0.0000 -0.7071
vn -0.4850 -0.7787 -0.3980
usemtl マテリアル.002
s 1
f 13/1/1 14/2/1 15/3/1
f 2/4/2 16/5/2 1/6/2
f 17/7/3 18/8/3 19/9/3
f 4/10/4 20/11/4 3/12/4
f 8/13/5 21/14/5 6/15/5
f 12/16/6 16/17/6 17/7/6
f 5/18/7 21/14/7 24/19/7
f 9/20/8 19/9/8 25/21/8
f 24/19/9 26/22/9 27/23/9
f 28/24/10 21/25/10 29/26/10
f 31/27/10 25/28/10 19/29/10
f 32/30/10 13/31/10 15/32/10
f 20/33/11 34/34/11 35/35/11
f 37/36/6 18/8/6 17/7/6
f 37/37/12 38/38/12 23/39/12
f 16/40/13 38/41/13 39/42/13
f 37/43/2 22/44/2 30/45/2
f 40/46/6 41/47/6 39/48/6
f 39/49/2 38/50/2 40/51/2
f 16/40/14 41/52/14 17/53/14
f 37/37/15 41/54/15 40/55/15
f 35/56/4 34/57/4 36/58/4
f 33/59/16 34/60/16 27/61/16
f 10/62/17 25/21/17 15/63/17
f 8/64/18 42/65/19 29/66/20
f 14/2/21 43/67/5 42/65/19 8/64/18 7/68/22 10/69/23
f 13/1/24 42/70/24 43/67/24
f 13/1/1 43/67/1 14/2/1
f 2/4/2 23/71/2 16/5/2
f 19/9/3 11/72/3 17/7/3
f 11/72/3 12/16/3 17/7/3
f 4/10/4 27/23/4 20/11/4
f 8/13/5 29/73/5 21/14/5
f 12/16/6 1/74/6 16/17/6
f 5/18/7 6/15/7 21/14/7
f 9/20/8 11/72/8 19/9/8
f 27/23/9 4/10/9 5/18/9
f 5/18/9 24/19/9 27/23/9
f 29/26/10 13/31/10 32/30/10
f 32/30/10 28/24/10 29/26/10
f 24/75/10 21/25/10 28/24/10
f 15/32/10 25/28/10 31/27/10
f 31/27/10 32/30/10 15/32/10
f 20/33/11 27/76/11 34/34/11
f 33/77/4 27/23/4 26/22/4
f 37/36/6 30/78/6 18/8/6
f 37/37/12 40/55/12 38/38/12
f 16/40/13 23/79/13 38/41/13
f 37/43/2 23/71/2 22/44/2
f 16/40/14 39/42/14 41/52/14
f 37/37/15 17/80/15 41/54/15
f 33/59/16 36/81/16 34/60/16
f 10/62/17 9/20/17 25/21/17
f 10/69/23 15/82/23 14/83/21
f 13/1/24 29/84/24 42/70/24
