# Blender v3.3.1 OBJ File: ''
# www.blender.org
mtllib enemyMiniRobotBreak02.mtl
o 球
v 0.966815 0.372353 0.192311
v 0.910720 0.372353 0.377232
v 0.819626 0.372353 0.547656
v 0.697035 0.372353 0.697035
v 0.758330 0.372353 0.622346
v 0.547657 0.372353 0.819626
v 0.622346 0.372353 0.758330
v 0.377232 0.372353 0.910720
v 0.192311 0.372353 0.966815
v 0.000000 0.372353 0.985756
v -0.192311 0.372353 0.966815
v -0.377232 0.372353 0.910720
v -0.547657 0.372353 0.819626
v -0.697035 0.372353 0.697035
v -0.622346 0.372353 0.758330
v -0.819626 0.372353 0.547656
v -0.758330 0.372353 0.622346
v -0.910720 0.372353 0.377232
v -0.966815 0.372353 0.192311
v -0.985756 0.372353 0.000000
v -0.966815 0.372353 -0.192311
v -0.910720 0.372353 -0.377232
v -0.819626 0.372353 -0.547656
v -0.697035 0.372353 -0.697035
v -0.758330 0.372353 -0.622346
v -0.547657 0.372353 -0.819626
v -0.622346 0.372353 -0.758330
v -0.377232 0.372353 -0.910720
v -0.192311 0.372353 -0.966815
v -0.697034 -0.549633 -0.697034
v -0.622345 -0.549633 -0.758330
v 0.547656 -0.549633 0.819626
v 0.000000 0.108051 0.985756
v -0.966815 -0.023486 0.192311
v -0.966815 -0.549633 0.192312
v -0.910720 -0.549633 0.377233
v -0.819626 -0.549633 0.547657
v -0.192311 -0.023486 -0.966814
v -0.192311 -0.549633 -0.966814
v -0.377232 -0.549633 -0.910719
v 0.192311 -0.023486 0.966815
v 0.910719 -0.549633 0.377233
v 0.966814 -0.549633 0.192312
v 0.966814 -0.023486 0.192312
v -0.377233 -0.549633 0.910720
v 0.192311 -0.549633 0.966815
v 0.377232 -0.549633 0.910720
v -0.985756 0.108051 0.000000
v -0.819626 -0.549633 -0.547656
v -0.192312 -0.549633 0.966815
v -0.192312 -0.023486 0.966815
v -0.910719 -0.549633 -0.377232
v 0.758330 -0.549633 0.622346
v 0.819625 -0.549633 0.547657
v -1.006732 -0.187385 0.870747
v -0.547656 -0.549633 -0.819625
v -0.966815 -0.549633 -0.192311
v -0.966814 -0.023486 -0.192311
v -0.547657 -0.549633 0.819626
v 0.000000 -0.549633 -0.000000
v -0.614719 -0.549633 -0.410742
v -0.758330 -0.549633 -0.622345
v 0.409813 -0.549633 0.273829
v 0.348517 -0.549633 0.348518
v -0.409813 -0.549633 -0.273828
v 0.614719 -0.549633 0.410743
v -0.985756 -0.549633 -0.000000
v -0.614720 -0.549633 0.410743
v -0.522776 -0.549633 0.522776
v -0.697035 -0.549633 0.697035
v -0.758330 -0.549633 0.622346
v -0.410743 -0.549633 0.614720
v -0.622346 -0.549633 0.758330
v -0.273828 -0.549633 0.409813
v 0.000000 -0.549633 0.985756
v -0.410742 -0.549633 -0.614719
v 0.410742 -0.549633 0.614720
v 0.522776 -0.549633 0.522776
v 0.697034 -0.549633 0.697035
v 0.622345 -0.549633 0.758331
v -0.522776 -0.549633 -0.522775
v -0.348517 -0.549633 0.348518
v -0.409813 -0.549633 0.273829
v -0.348517 -0.549633 -0.348517
v -0.273828 -0.549633 -0.409812
v 0.410742 -0.722470 0.614720
v 0.522776 -0.847790 0.522776
v 0.756767 -0.549633 0.624250
v 0.614719 -0.709291 0.410743
v 0.273828 -0.549633 0.409813
v 0.000000 -0.155023 0.985756
v -0.182701 -0.019208 1.140686
v 0.201922 -0.019208 1.140686
v -0.985756 -0.155023 -0.000000
v -1.112598 -0.023486 0.192311
v 0.009610 0.112328 1.159627
v 0.009610 -0.150745 1.159627
v -0.870747 -0.187385 1.006732
v -0.945436 -0.187385 0.945436
v 0.000000 -0.549633 0.985756
v 0.000000 -0.549633 0.985756
vt 0.226589 0.569468
vt 0.000000 0.534785
vt 0.226589 0.534785
vt 0.661964 0.809191
vt 0.726919 0.837208
vt 0.661964 0.837208
vt 0.759246 0.603761
vt 0.888552 0.603761
vt 0.888552 0.635724
vt 0.661964 0.670407
vt 0.888552 0.670407
vt 0.497291 0.809191
vt 0.367985 0.809191
vt 0.367985 0.777227
vt 0.226589 0.601432
vt 0.161633 0.629448
vt 0.129307 0.601432
vt 0.000000 0.427965
vt 0.000000 0.396001
vt 0.129307 0.396001
vt 0.661964 0.742545
vt 0.888552 0.777227
vt 0.661964 0.777227
vt 0.000000 0.601432
vt 0.000000 0.569468
vt 0.594573 0.603761
vt 0.529618 0.575744
vt 0.594573 0.575744
vt 0.594573 0.688442
vt 0.367985 0.670407
vt 0.594573 0.670407
vt 0.661964 0.603761
vt 0.726919 0.575744
vt 0.888552 0.809191
vt 0.759246 0.809191
vt 0.594573 0.635724
vt 0.367985 0.635724
vt 0.226589 0.480682
vt 0.000000 0.480682
vt 0.000000 0.462648
vt 0.226589 0.462648
vt 0.226589 0.427965
vt 0.594573 0.742545
vt 0.367985 0.742545
vt 0.367985 0.603761
vt 0.497291 0.603761
vt 0.661964 0.724510
vt 0.888552 0.742545
vt 0.291180 0.096026
vt 0.326909 0.066704
vt 0.336976 0.081772
vt 0.183992 0.183992
vt 0.112534 0.242637
vt 0.102466 0.227569
vt 0.255450 0.125348
vt 0.301281 0.041076
vt 0.066704 0.326909
vt 0.076805 0.271959
vt 0.271145 0.020940
vt 0.237661 0.007071
vt 0.096839 0.347044
vt 0.202114 0.000000
vt 0.165871 0.000000
vt 0.143741 0.051301
vt 0.130324 0.007071
vt 0.118628 0.061703
vt 0.096839 0.020940
vt 0.113582 0.014006
vt 0.096026 0.076805
vt 0.066704 0.041076
vt 0.081772 0.031008
vt 0.125348 0.112534
vt 0.041076 0.066704
vt 0.020940 0.096839
vt 0.007071 0.130324
vt 0.000000 0.165871
vt 0.367985 0.202114
vt 0.367985 0.165871
vt 0.000000 0.202114
vt 0.316684 0.143741
vt 0.360914 0.130324
vt 0.051301 0.224244
vt 0.007071 0.237661
vt 0.061703 0.249357
vt 0.020940 0.271145
vt 0.014006 0.254403
vt 0.306281 0.118628
vt 0.347044 0.096839
vt 0.353979 0.113582
vt 0.140416 0.102466
vt 0.157158 0.095532
vt 0.265518 0.140416
vt 0.272453 0.157158
vt 0.709428 0.467949
vt 0.682376 0.425472
vt 0.709428 0.394674
vt 0.031008 0.286213
vt 0.030752 0.285829
vt 0.736479 0.428711
vt 0.736479 0.467949
vt 0.095532 0.210827
vt 0.348604 0.708895
vt 0.330963 0.756063
vt 0.315746 0.684385
vt 0.296353 0.723298
vt 0.834888 0.440006
vt 0.834888 0.394674
vt 0.877365 0.440006
vt 0.588190 0.837208
vt 0.588190 0.882539
vt 0.548952 0.882538
vt 0.786877 0.565307
vt 0.769236 0.569052
vt 0.509715 0.897163
vt 0.682376 0.467949
vt 0.655325 0.467949
vt 0.860363 0.497374
vt 0.769090 0.430742
vt 0.740032 0.396476
vt 0.772642 0.394674
vt 0.791572 0.837208
vt 0.888552 0.837208
vt 0.767569 0.358719
vt 0.739658 0.320733
vt 0.772285 0.322536
vt 0.096980 0.629448
vt 0.791572 0.575744
vt 0.464965 0.575744
vt 0.367985 0.575744
vt 0.814219 0.532254
vt 0.790544 0.497377
vt 0.817886 0.497374
vt 0.892729 0.385387
vt 0.864713 0.353060
vt 0.892729 0.320733
vt 0.424018 0.869534
vt 0.452034 0.837208
vt 0.452034 0.901861
vt 0.740032 0.468614
vt 0.736479 0.432545
vt 0.739658 0.392871
vt 0.734942 0.356916
vt 0.000000 0.516751
vt 0.953179 0.315678
vt 0.001779 0.945665
vt 0.000000 0.719083
vt 0.073143 0.856044
vt 0.071367 0.856030
vt 0.971213 0.315678
vt 0.594573 0.724510
vt 0.367985 0.724510
vt 0.661964 0.688442
vt 0.888552 0.688442
vt 0.278318 1.000000
vt 0.260284 0.910973
vt 0.278318 0.910973
vt 0.296353 0.910973
vt 0.296353 1.000000
vt 0.888552 0.665298
vt 0.955515 0.802340
vt 0.890328 0.891880
vt 0.661964 0.635724
vt 0.594573 0.777227
vt 0.594573 0.809191
vt 0.226589 0.629448
vt 0.226589 0.396001
vt 0.367985 0.688441
vt 0.661964 0.575744
vt 0.000000 0.481142
vt 0.142714 0.856030
vt 0.144490 0.629448
vt 0.209677 0.718989
vt 0.888552 0.724510
vt 0.041076 0.301281
vt 0.682376 0.467949
vt 0.707891 0.394674
vt 0.509715 0.882540
vt 0.699344 0.497374
vt 0.716985 0.501122
vt 0.338829 0.831945
vt 0.734942 0.394673
vt 0.348604 0.752318
vt 0.313321 0.759808
vt 0.000000 0.629448
vt 0.888552 0.575744
vt 0.323695 0.795877
vt 0.327248 0.831945
vt 0.299905 0.831945
vt 0.772642 0.466811
vt 0.772285 0.394674
vt 0.226589 0.516751
vt 0.260284 1.000000
vt 0.144490 0.856044
vn 0.4714 -0.0000 0.8819
vn -0.0980 -0.0000 0.9952
vn -0.9569 0.0000 0.2903
vn -0.8819 0.0000 0.4714
vn -0.2903 -0.0000 -0.9569
vn 0.0980 -0.0000 0.9952
vn 0.9569 -0.0000 0.2903
vn -0.4714 0.0000 0.8819
vn 0.2903 -0.0000 0.9569
vn -0.9952 -0.0000 -0.0980
vn -0.7730 0.0000 -0.6344
vn -0.9952 0.0000 0.0980
vn -0.2903 -0.0000 0.9569
vn -0.8819 -0.0000 -0.4714
vn 0.7730 -0.0000 0.6344
vn 0.8819 -0.0000 0.4714
vn -0.4714 -0.0000 -0.8819
vn -0.9569 0.0000 -0.2903
vn -0.6344 -0.0000 0.7730
vn -0.0000 -1.0000 -0.0000
vn 0.6344 0.0000 0.7730
vn -0.7966 -0.5749 -0.1871
vn -0.1464 -0.5616 -0.8144
vn -0.8315 0.0000 0.5556
vn 0.5556 0.0000 -0.8315
vn 0.3655 -0.8174 0.4453
vn 0.4217 -0.8381 0.3461
vn -0.5555 -0.0000 0.8315
vn -0.6344 0.0000 -0.7730
vn 0.8315 0.0000 -0.5555
vn -0.5673 -0.8219 0.0516
vn 0.5604 0.8267 -0.0513
vn 0.0000 0.8254 0.5646
vn 0.5638 -0.8258 -0.0108
vn -0.5653 0.8248 0.0110
vn 0.5389 -0.7170 0.4422
vn 0.7089 -0.0026 -0.7053
vn 0.1831 0.6109 -0.7703
vn -0.2771 0.8995 -0.3377
vn -0.7071 -0.0000 0.7071
vn 0.4422 -0.7170 0.5389
vn -0.7730 0.0000 0.6344
vn -0.4565 -0.6944 0.5562
vn -0.5562 -0.6944 0.4565
vn 0.7724 0.6089 0.1806
vn 0.7071 -0.0000 0.7071
vn 0.7729 -0.0000 0.6345
vn -0.7071 0.0000 -0.7071
vn -0.9097 -0.4122 0.0499
vn -0.5555 0.0000 -0.8315
vn 0.4217 -0.8381 -0.3461
vn 0.3654 -0.8174 -0.4453
vn 0.8315 -0.0000 0.5555
vn -0.3654 -0.8174 -0.4453
vn -0.4217 -0.8381 -0.3461
vn 0.0000 -0.8254 0.5646
vn 0.3553 0.8881 -0.2916
usemtl マテリアル.002
s 1
f 8/1/1 32/2/1 6/3/1
f 11/4/2 33/5/2 10/6/2
f 34/7/3 35/8/3 36/9/3
f 16/10/4 36/9/4 37/11/4
f 38/12/5 39/13/5 40/14/5
f 9/15/6 33/16/6 41/17/6
f 42/18/7 43/19/7 44/20/7
f 13/21/8 45/22/8 12/23/8
f 41/17/9 46/24/9 47/25/9
f 21/26/10 48/27/10 20/28/10
f 25/29/11 49/30/11 23/31/11
f 19/32/12 48/33/12 34/7/12
f 45/22/13 50/34/13 51/35/13
f 22/36/14 49/30/14 52/37/14
f 5/38/15 53/39/15 54/40/15
f 3/41/16 42/18/16 2/42/16
f 26/43/17 40/14/17 56/44/17
f 52/37/18 57/45/18 58/46/18
f 15/47/19 59/48/19 13/21/19
f 61/49/20 49/50/20 62/51/20
f 60/52/20 63/53/20 64/54/20
f 61/49/20 65/55/20 52/56/20
f 42/57/20 66/58/20 63/53/20
f 52/56/20 60/52/20 57/59/20
f 57/59/20 60/52/20 67/60/20
f 60/52/20 43/61/20 42/57/20
f 67/60/20 60/52/20 35/62/20
f 35/62/20 60/52/20 36/63/20
f 68/64/20 37/65/20 36/63/20
f 69/66/20 70/67/20 71/68/20
f 72/69/20 59/70/20 73/71/20
f 72/69/20 74/72/20 45/73/20
f 45/73/20 60/52/20 50/74/20
f 50/74/20 60/52/20 75/75/20
f 75/75/20 60/52/20 46/76/20
f 39/77/20 60/52/20 40/78/20
f 46/76/20 60/52/20 47/79/20
f 76/80/20 56/81/20 40/78/20
f 77/82/20 32/83/20 47/79/20
f 78/84/20 79/85/20 80/86/20
f 81/87/20 30/88/20 31/89/20
f 74/72/20 82/90/20 60/52/20
f 82/90/20 83/91/20 60/52/20
f 84/92/20 85/93/20 60/52/20
f 65/55/20 84/92/20 60/52/20
f 78/94/21 86/95/21 87/96/21
f 53/97/20 88/98/20 78/84/20
f 78/94/15 89/99/15 66/100/15
f 64/54/20 90/101/20 60/52/20
f 86/102/22 64/103/22 87/104/22
f 64/103/23 89/105/23 87/104/23
f 77/106/24 90/107/24 86/108/24
f 63/109/25 66/110/25 89/111/25
f 85/112/26 84/113/27 65/114/28 61/115/11 81/116/29 76/117/30
f 91/118/31 92/119/31 51/120/31
f 91/121/2 50/34/2 75/122/2
f 33/123/32 93/124/32 41/125/32
f 91/126/6 46/24/6 41/17/6
f 94/127/12 35/8/12 34/7/12
f 94/128/10 57/45/10 67/129/10
f 48/130/33 95/131/33 34/132/33
f 96/133/2 92/134/2 97/135/2
f 93/136/6 96/137/6 97/138/6
f 91/118/34 93/139/34 97/140/34
f 33/123/35 92/141/35 96/142/35
f 80/143/21 6/3/21 32/2/21
f 79/144/36 88/145/37 5/146/38 4/147/39 7/148/40 80/149/41
f 27/150/29 56/44/29 31/151/29
f 17/152/42 37/11/42 71/153/42
f 70/154/43 98/155/43 99/156/43
f 70/154/44 55/157/44 71/158/44
f 15/159/45 98/160/46 73/161/46
f 8/1/1 47/25/1 32/2/1
f 11/4/2 51/35/2 33/5/2
f 36/9/3 18/162/3 34/7/3
f 18/162/3 19/32/3 34/7/3
f 16/10/4 18/162/4 36/9/4
f 40/14/5 28/163/5 38/12/5
f 28/163/5 29/164/5 38/12/5
f 9/15/6 10/165/6 33/16/6
f 44/20/7 1/166/7 2/42/7
f 2/42/7 42/18/7 44/20/7
f 13/21/8 59/48/8 45/22/8
f 47/25/9 8/1/9 41/17/9
f 8/1/9 9/15/9 41/17/9
f 21/26/10 58/46/10 48/27/10
f 25/29/11 62/167/11 49/30/11
f 19/32/12 20/168/12 48/33/12
f 51/35/13 11/4/13 12/23/13
f 12/23/13 45/22/13 51/35/13
f 22/36/14 23/31/14 49/30/14
f 54/40/15 3/41/15 5/38/15
f 5/38/15 88/169/47 53/39/15
f 3/41/16 54/40/16 42/18/16
f 17/170/48 71/171/48 55/172/49
f 26/43/17 28/163/17 40/14/17
f 58/46/18 21/26/18 22/36/18
f 22/36/18 52/37/18 58/46/18
f 15/47/19 73/173/19 59/48/19
f 62/51/20 30/88/20 81/87/20
f 81/87/20 61/49/20 62/51/20
f 52/56/20 49/50/20 61/49/20
f 65/55/20 60/52/20 52/56/20
f 63/53/20 60/52/20 42/57/20
f 42/57/20 54/174/20 66/58/20
f 36/63/20 60/52/20 83/91/20
f 83/91/20 68/64/20 36/63/20
f 71/68/20 37/65/20 68/64/20
f 68/64/20 69/66/20 71/68/20
f 73/71/20 70/67/20 69/66/20
f 69/66/20 72/69/20 73/71/20
f 45/73/20 59/70/20 72/69/20
f 74/72/20 60/52/20 45/73/20
f 40/78/20 60/52/20 85/93/20
f 85/93/20 76/80/20 40/78/20
f 47/79/20 60/52/20 90/101/20
f 90/101/20 77/82/20 47/79/20
f 80/86/20 32/83/20 77/82/20
f 77/82/20 78/84/20 80/86/20
f 31/89/20 56/81/20 76/80/20
f 76/80/20 81/87/20 31/89/20
f 78/94/21 77/175/21 86/95/21
f 79/85/20 78/84/20 88/98/20
f 78/84/20 66/58/20 53/97/20
f 66/58/20 54/174/20 53/97/20
f 78/94/15 87/96/15 89/99/15
f 69/176/42 68/177/50 83/178/51 82/179/52 74/180/53 72/181/19
f 86/102/54 90/182/54 64/103/54
f 64/103/55 63/183/55 89/105/55
f 91/118/31 97/140/31 92/119/31
f 91/121/2 51/35/2 50/34/2
f 33/123/32 96/142/32 93/124/32
f 91/126/6 75/184/6 46/24/6
f 94/127/12 67/185/12 35/8/12
f 94/186/56 34/187/56 95/188/56
f 94/128/10 58/46/10 57/45/10
f 91/118/34 41/189/34 93/139/34
f 33/123/35 51/190/35 92/141/35
f 80/143/21 7/191/21 6/3/21
f 27/150/29 26/43/29 56/44/29
f 17/152/42 16/10/42 37/11/42
f 70/154/43 73/192/43 98/155/43
f 14/193/57 17/170/48 55/157/49 99/156/19 98/160/46 15/159/45
f 70/154/44 99/156/44 55/157/44
l 100 101
l 24 25
l 24 27
l 75 100
