# Blender 3.3.1
# www.blender.org
mtllib enemyFighterBreak02.mtl
o Cube.001
v -0.093515 -0.308240 2.996066
v -0.187029 -0.308240 2.996066
v -0.021424 -0.477888 3.603239
v -0.010712 -0.477888 3.603239
v -0.021627 -0.509674 3.699126
v -0.052392 -0.495832 3.603239
v 0.099525 -0.638590 3.022771
v 0.199050 -0.638590 3.022771
v 0.027182 -0.599186 3.603239
v 0.013591 -0.601751 3.603239
v 0.236560 -0.418500 2.996066
v 0.187029 -0.308240 2.996066
v 0.021424 -0.477888 3.603239
v 0.052392 -0.495832 3.603239
v 0.951784 -0.007404 -0.383116
v 0.633479 0.083667 -0.039801
v 0.664318 -0.297267 0.429927
v 0.285824 -0.577449 -0.039801
v 0.374825 -0.607440 1.174546
v 0.205708 -0.607440 1.174546
v -0.326866 -0.230095 2.388893
v -0.215381 -0.114024 2.388893
v -0.367275 -0.112662 1.013304
v -0.215102 -0.006294 1.235684
v -0.342907 -0.501353 2.388893
v -0.359048 -0.444218 2.388893
v -0.537500 -0.332919 1.174546
v -0.480131 -0.449174 1.196327
v 0.392516 -0.451728 -0.039801
v 0.537500 -0.332919 1.174546
v 0.480131 -0.449174 1.196327
v 0.241669 -0.571687 2.996066
v 0.241669 -0.499868 2.996066
v 0.060231 -0.555519 3.603239
v 0.048267 -0.577206 3.603239
v -0.029156 -0.570756 3.699126
v -0.034927 -0.545971 3.699126
v -0.060231 -0.555519 3.603239
v -0.048267 -0.577206 3.603239
v -0.368785 -0.360639 2.388235
v 0.242061 -0.447326 2.996066
v 0.058553 -0.513670 3.603669
v -0.030373 -0.522852 3.699339
v -0.058553 -0.513670 3.603669
v -0.013591 -0.601751 3.603239
v -0.027182 -0.599186 3.603239
v -0.279805 -0.626976 2.388893
v -0.374825 -0.607440 1.174546
v -0.034918 -0.531508 3.699553
v -0.061347 -0.531508 3.601610
v 0.241669 -0.473227 2.996066
v 0.061347 -0.531508 3.601610
v -0.371612 -0.377326 2.386030
v -0.241669 -0.499868 2.996066
v -0.241669 -0.473227 2.996066
v 0.371612 -0.377326 2.386030
v 0.359048 -0.444218 2.388893
v -0.199050 -0.638590 3.022771
v -0.241669 -0.571687 2.996066
v 0.342907 -0.501353 2.388893
v 0.279805 -0.626976 2.388893
v 0.326866 -0.230095 2.388893
v 0.368785 -0.360639 2.388235
v -0.242061 -0.447326 2.996066
v -0.236560 -0.418500 2.996066
v 0.367275 -0.112662 1.013304
v 0.215381 -0.114024 2.388893
v 0.139902 -0.626976 2.388893
v -0.107425 -0.039626 2.391455
v 0.107425 -0.039626 2.391455
v 0.000000 -0.024313 2.388893
v 0.000000 -0.308240 2.996066
v 0.093515 -0.308240 2.996066
v -0.139902 -0.626976 2.388893
v 0.000000 -0.626976 2.388893
v 0.000000 -0.638590 3.022771
v -0.099525 -0.638590 3.022771
v 0.215102 -0.006294 1.235684
v 0.000000 0.061013 1.423228
v -0.205708 -0.607440 1.174546
v 0.000000 -0.607440 1.174546
v 0.034927 -0.545971 3.699126
v 0.034918 -0.531508 3.699553
v 0.000000 -0.537349 3.776586
v 0.000000 -0.546647 3.776159
v 0.029156 -0.570756 3.699126
v 0.000000 -0.571861 3.699126
v 0.000000 -0.600681 3.603239
v 0.030373 -0.522852 3.699339
v 0.021627 -0.509674 3.699126
v 0.000000 -0.500864 3.699126
v 0.000000 -0.519879 3.776372
v 0.355480 0.056509 0.053900
v 0.010712 -0.477888 3.603239
v 0.000000 -0.477888 3.603239
v 0.683749 0.096068 -0.601647
vn -0.0000 0.9631 0.2691
vn -0.3784 0.8789 0.2905
vn 0.0226 -0.9973 0.0705
vn 0.7988 0.5016 0.3321
vn 0.5844 0.6510 0.4844
vn 0.4397 0.7655 0.4698
vn 0.7065 0.5286 0.4707
vn -0.9207 -0.3784 0.0951
vn 0.6366 -0.7712 -0.0007
vn 0.8338 -0.5048 -0.2236
vn 0.6366 -0.7712 -0.0005
vn 0.6367 -0.7711 -0.0006
vn 0.9501 -0.1216 0.2872
vn -0.9072 -0.3462 0.2390
vn 0.9227 0.2334 0.3069
vn -0.8535 0.4167 0.3127
vn -0.5630 -0.7954 0.2242
vn 0.8195 -0.5073 0.2665
vn 0.8020 -0.5938 -0.0645
vn -0.8558 -0.5129 0.0673
vn -0.9657 -0.0197 0.2587
vn 0.9585 -0.0120 0.2848
vn -0.9752 -0.1254 0.1825
vn 0.7821 -0.6163 0.0923
vn 0.7669 -0.6334 0.1038
vn 0.8216 -0.5650 0.0761
vn 0.6699 -0.7413 0.0416
vn -0.8780 -0.4686 0.0978
vn 0.8558 -0.5129 0.0673
vn 0.6359 0.7581 0.1443
vn 0.6349 0.7578 0.1501
vn 0.6332 0.7572 0.1603
vn -0.9332 0.2767 0.2293
vn 0.9207 -0.3784 0.0951
vn -0.9789 -0.1225 0.1635
vn -0.7882 0.5607 0.2537
vn 0.5263 0.8502 0.0098
vn 0.5114 0.8593 0.0052
vn 0.5421 0.8388 0.0496
vn 0.5246 0.8493 0.0596
vn -0.0000 -0.9998 -0.0204
vn -0.0000 -0.9999 -0.0171
vn -0.0000 -0.9999 -0.0172
vn -0.6112 0.7881 0.0735
vn -0.7988 0.5016 0.3321
vn -0.9501 -0.1216 0.2872
vn -0.9227 0.2334 0.3069
vn -0.8195 -0.5073 0.2665
vn -0.9585 -0.0120 0.2848
vn 0.9752 -0.1254 0.1825
vn 0.8780 -0.4686 0.0978
vn 0.9332 0.2767 0.2293
vn 0.9789 -0.1225 0.1635
vn 0.7882 0.5607 0.2537
vn -0.0000 -0.9998 -0.0183
vn -0.3288 0.8784 0.3470
vn 0.0639 0.9077 0.4146
vn 0.2840 0.9564 0.0679
vn -0.0000 -0.9998 -0.0203
vn 0.9109 -0.0145 0.4123
vn 0.0008 -0.9547 0.2977
vn -0.0000 -0.9547 0.2977
vn 0.5648 0.7827 0.2615
vn 0.5375 -0.7251 0.4304
vn 0.0094 -0.9979 0.0636
vn 0.2544 0.9337 0.2521
vn 0.9071 0.1642 0.3875
vn 0.9761 0.0448 0.2124
vn -0.9560 0.0388 0.2907
vn -0.9761 0.0448 0.2124
vn 0.3639 -0.9300 0.0520
vn 0.3655 -0.9299 0.0418
vn 0.3645 -0.9300 0.0484
vn -0.9315 0.2390 0.2741
vn 0.9560 0.0388 0.2907
vn 0.9315 0.2390 0.2741
vn 0.3784 0.8789 0.2905
vn 0.2832 0.9565 0.0696
vn 0.3012 0.9066 0.2955
vn 0.2929 0.9422 0.1625
vn 0.9072 -0.3462 0.2390
vn 0.8535 0.4167 0.3127
vn 0.5630 -0.7954 0.2242
vn 0.9657 -0.0197 0.2587
vn 0.6112 0.7881 0.0735
vn 0.3288 0.8784 0.3470
vn -0.0094 -0.9979 0.0636
vn -0.9071 0.1642 0.3875
vn -0.0226 -0.9973 0.0705
vn -0.3714 -0.9279 0.0326
vn -0.0639 0.9077 0.4146
vn -0.2840 0.9564 0.0679
vn -0.9109 -0.0145 0.4123
vn -0.0008 -0.9547 0.2977
vn -0.5648 0.7827 0.2615
vn -0.5375 -0.7251 0.4304
vn -0.2544 0.9337 0.2521
vn -0.5168 0.8311 0.2052
vn -0.0337 -0.9993 0.0136
vn 0.7592 -0.6443 -0.0925
vn -0.0000 -0.9993 -0.0371
vn -0.6368 -0.7711 -0.0006
vn -0.7821 -0.6163 0.0923
vn -0.6698 -0.7413 0.0415
vn -0.3645 -0.9300 0.0484
vn -0.6332 0.7572 0.1603
vn -0.5246 0.8493 0.0596
vn -0.5421 0.8389 0.0497
vn -0.2930 0.9422 0.1626
vn -0.3213 0.9447 0.0652
vn 0.3157 0.9476 0.0478
vn 0.3213 0.9447 0.0652
vn -0.1789 0.9838 -0.0095
vn -0.1790 0.9838 -0.0106
vn -0.2593 0.7128 0.6517
vn 0.2724 0.9098 0.3130
vn 0.3121 0.9297 -0.1955
vn 0.3736 0.9187 0.1279
vn 0.8947 0.3838 0.2287
vn 0.8062 0.5865 0.0773
vn 0.8510 0.4339 0.2960
vt 0.205673 0.576131
vt 0.905463 0.100110
vt 0.216806 0.577610
vt 0.185369 0.651343
vt 0.888965 0.021690
vt 0.184094 0.651173
vt 0.885385 0.010069
vt 0.183398 0.663495
vt 0.188536 0.652161
vt 0.886344 0.022508
vt 0.785622 0.093611
vt 1.000000 0.095815
vt 0.773409 0.094507
vt 0.995895 0.021562
vt 0.789265 0.021629
vt 0.790933 0.021515
vt 0.972658 0.099970
vt 0.959859 0.098699
vt 0.172275 0.571694
vt 0.981147 0.021407
vt 0.180268 0.650665
vt 0.176062 0.650504
vt 0.982916 0.022197
vt 0.127826 0.146452
vt 0.164511 0.191233
vt 0.126729 0.672658
vt 0.144536 0.254387
vt 0.959238 0.419739
vt 0.556143 0.166149
vt 0.092783 0.735597
vt 1.000000 0.466650
vt 0.790308 0.470745
vt 0.999012 0.322756
vt 0.768466 0.322692
vt 0.789217 0.321169
vt 0.911134 0.177154
vt 0.232615 0.501257
vt 0.926857 0.174545
vt 0.920508 0.342960
vt 0.266155 0.337695
vt 0.936322 0.312575
vt 0.248629 0.360166
vt 0.877760 0.175864
vt 0.884520 0.176725
vt 0.891759 0.327460
vt 0.878412 0.322372
vt 0.590394 0.679301
vt 0.582004 0.228169
vt 0.983171 0.469361
vt 0.583104 0.077368
vt 0.963227 0.326883
vt 0.590395 0.075977
vt 0.978162 0.322807
vt 0.991314 0.100111
vt 0.982535 0.100106
vt 0.990105 0.022402
vt 0.992920 0.022098
vt 0.786673 0.021746
vt 0.877816 0.009897
vt 0.795308 0.009266
vt 0.880766 0.010233
vt 0.796010 0.009132
vt 0.878942 0.022355
vt 0.798518 0.020877
vt 0.876456 0.021851
vt 0.894599 0.177644
vt 0.976107 0.100112
vt 0.985011 0.022304
vt 0.883655 0.010222
vt 0.884081 0.022526
vt 0.794269 0.021270
vt 0.874061 0.021070
vt 0.795936 0.021139
vt 0.863277 0.173136
vt 0.837869 0.167910
vt 0.860452 0.315943
vt 0.860452 0.320750
vt 0.882535 0.010277
vt 0.881855 0.022739
vt 0.979278 0.100104
vt 0.987159 0.022624
vt 0.892513 0.177883
vt 0.881289 0.100507
vt 0.884545 0.100682
vt 0.967501 0.176836
vt 0.975842 0.176177
vt 0.865009 0.095132
vt 0.822258 0.090923
vt 0.872512 0.100038
vt 0.983047 0.175769
vt 0.999267 0.174170
vt 0.769202 0.172947
vt 0.164698 0.494807
vt 0.950109 0.175341
vt 0.965494 0.176498
vt 0.887705 0.100863
vt 0.891304 0.100885
vt 0.178709 0.326077
vt 0.126729 0.808447
vt 0.937447 0.172490
vt 0.181333 0.494444
vt 0.786369 0.171688
vt 0.937447 0.171465
vt 0.221890 0.498496
vt 0.196312 0.495097
vt 0.209574 0.496207
vt 0.194540 0.574652
vt 0.183408 0.573173
vt 0.820702 0.169169
vt 0.803535 0.170429
vt 0.797834 0.092715
vt 0.810046 0.091819
vt 0.197414 0.353361
vt 0.222870 0.378154
vt 0.839700 0.317465
vt 0.814459 0.319317
vt 0.787439 0.009761
vt 0.989013 0.010215
vt 0.987244 0.010162
vt 0.988219 0.000000
vt 0.882550 0.000010
vt 0.989356 0.000052
vt 0.881412 0.000000
vt 0.791032 0.000000
vt 0.992122 0.010069
vt 0.788153 0.009791
vt 0.791731 0.009532
vt 0.792601 0.021389
vt 0.176823 0.662940
vt 0.986249 0.010071
vt 0.178248 0.662811
vt 0.984759 0.009873
vt 0.886760 0.009473
vt 0.181078 0.662992
vt 0.179661 0.672658
vt 0.986084 0.000025
vt 0.884685 0.000150
vt 0.195769 0.207430
vt 0.181544 0.650835
vt 0.182819 0.651004
vt 0.165183 0.122434
s 1
usemtl マテリアル
f 1/1/1 2/3/1 3/4/1 4/6/1
f 5/8/2 4/6/2 3/4/2 6/9/2
f 7/11/3 8/13/3 9/15/3 10/16/3
f 11/17/4 12/18/4 13/20/4 14/23/4
f 15/24/5 16/25/6 17/27/7
f 25/43/8 26/44/8 27/45/8 28/46/8
f 29/48/9 17/29/10 30/50/11 31/52/12
f 32/54/13 33/55/13 34/56/13 35/57/13
f 36/59/14 37/61/14 38/63/14 39/65/14
f 41/67/15 11/17/15 14/23/15 42/68/15
f 43/69/16 5/7/16 6/10/16 44/70/16
f 45/71/17 36/60/17 39/64/17 46/73/17
f 8/12/18 32/54/18 35/57/18 9/14/18
f 18/31/19 29/49/19 31/53/19 19/33/19
f 47/74/20 25/43/20 28/46/20 48/77/20
f 37/61/21 49/78/21 50/79/21 38/63/21
f 33/55/22 51/80/22 52/81/22 34/56/22
f 54/83/23 55/84/23 53/82/23 26/44/23
f 30/51/24 17/28/25 56/85/26 57/86/27
f 58/87/28 59/89/28 25/43/28 47/74/28
f 19/33/29 31/53/29 60/90/29 61/91/29
f 17/28/30 62/94/31 63/95/32
f 64/96/33 65/97/33 21/36/33 40/66/33
f 31/53/34 30/51/34 57/86/34 60/90/34
f 59/89/35 54/83/35 26/44/35 25/43/35
f 65/97/36 2/2/36 22/38/36 21/36/36
f 17/27/37 66/98/38 67/101/39 62/93/40
f 20/35/41 19/34/41 61/92/42 68/102/43
f 24/41/44 23/39/44 22/38/44 69/103/44
f 6/10/45 3/5/45 2/2/45 65/97/45
f 39/65/46 38/63/46 54/83/46 59/89/46
f 44/70/47 6/10/47 65/97/47 64/96/47
f 46/72/48 39/65/48 59/89/48 58/87/48
f 38/63/49 50/79/49 55/84/49 54/83/49
f 57/86/50 56/85/50 51/80/50 33/55/50
f 61/91/51 60/90/51 32/54/51 8/12/51
f 63/95/52 62/94/52 11/17/52 41/67/52
f 60/90/53 57/86/53 33/55/53 32/54/53
f 62/94/54 67/100/54 12/18/54 11/17/54
f 68/102/43 61/92/42 8/13/55 7/11/55
f 69/104/56 22/37/56 2/3/56 1/1/56
f 70/105/57 71/106/57 72/107/57 73/108/57
f 74/109/43 75/110/43 76/111/55 77/112/55
f 78/113/58 79/114/58 71/106/58 70/105/58
f 80/115/41 81/116/59 75/110/43 74/109/43
f 82/118/60 83/119/60 84/120/60 85/122/60
f 10/16/61 86/126/61 87/127/62 88/128/62
f 89/129/63 90/131/63 91/134/63 92/135/63
f 86/126/64 82/117/64 85/124/64 87/127/64
f 77/112/65 76/111/65 88/128/65 45/71/65
f 90/131/66 94/139/66 95/140/66 91/134/66
f 73/108/1 72/107/1 95/140/1 94/139/1
f 83/119/67 89/130/67 92/136/67 84/120/67
f 56/85/68 63/95/68 41/67/68 51/80/68
f 50/79/69 44/70/69 64/96/69 55/84/69
f 55/84/70 64/96/70 40/66/70 53/82/70
f 17/28/71 63/95/72 56/85/73
f 49/78/74 43/69/74 44/70/74 50/79/74
f 51/80/75 41/67/75 42/68/75 52/81/75
f 52/81/76 42/68/76 89/130/76 83/119/76
f 12/19/1 73/108/1 94/139/1 13/21/1
f 14/22/77 13/21/77 94/139/77 90/131/77
f 93/138/78 78/113/79 66/98/80 16/25/80
f 35/57/81 34/56/81 82/118/81 86/125/81
f 42/68/82 14/23/82 90/132/82 89/130/82
f 9/15/83 35/58/83 86/126/83 10/16/83
f 34/56/84 52/81/84 83/119/84 82/118/84
f 66/98/85 78/113/85 70/105/85 67/101/85
f 67/101/86 70/105/86 73/108/86 12/19/86
f 75/110/43 68/102/43 7/11/55 76/111/55
f 81/116/59 20/35/41 68/102/43 75/110/43
f 76/111/87 7/11/87 10/16/87 88/128/87
f 84/121/88 92/137/88 43/69/88 49/78/88
f 58/88/89 77/112/89 45/71/89 46/73/89
f 48/76/90 80/115/41 74/109/43 47/75/42
f 47/75/42 74/109/43 77/112/55 58/88/55
f 71/106/91 69/104/91 1/1/91 72/107/91
f 79/114/92 24/42/92 69/104/92 71/106/92
f 85/123/93 84/121/93 49/78/93 37/61/93
f 88/128/62 87/127/62 36/60/94 45/71/94
f 92/137/95 91/133/95 5/7/95 43/69/95
f 87/127/96 85/124/96 37/62/96 36/60/96
f 91/134/97 95/140/97 4/6/97 5/8/97
f 72/107/1 1/1/1 4/6/1 95/140/1
f 15/24/98 17/29/99 29/49/100 18/32/101 19/34/41 20/35/41 81/116/59 80/115/41 48/77/90 28/47/102 27/45/103 26/44/104 53/82/105 40/66/106 21/36/107 22/38/108 23/40/109 24/42/110 79/114/111 78/113/112 93/138/113 16/25/114 96/141/115
f 16/25/116 15/24/117 96/141/118
f 17/30/119 16/26/120 66/99/121
