# Blender 3.3.1
# www.blender.org
mtllib enemyFighter.mtl
o Cube
v 0.734019 0.108469 -1.163493
v 0.192186 -0.538627 -1.077796
v 0.021424 -0.477887 3.603239
v 0.027182 -0.599185 3.603239
v -0.734019 0.108469 -1.163493
v -0.192186 -0.538627 -1.077796
v -0.021424 -0.477887 3.603239
v -0.027182 -0.599185 3.603239
v -0.374825 -0.607440 1.174546
v 0.367275 -0.112662 1.013304
v -0.367275 -0.112662 1.013304
v 0.374825 -0.607440 1.174546
v 1.291608 -0.381247 -1.095753
v -0.060231 -0.555518 3.603239
v 0.060231 -0.555518 3.603239
v -1.291608 -0.381247 -1.095753
v 0.537500 -0.332919 1.174546
v -0.537500 -0.332919 1.174546
v -0.052392 -0.495831 3.603239
v 0.620895 0.948625 -1.425874
v 0.052392 -0.495831 3.603239
v -0.620895 0.948625 -1.425874
v 0.664318 -0.297267 0.429927
v -0.664318 -0.297267 0.429927
v 0.048267 -0.577205 3.603239
v 0.480131 -0.449174 1.196327
v -0.480131 -0.449174 1.196327
v -0.048267 -0.577205 3.603239
v 2.074952 -0.230065 -1.483705
v 0.061347 -0.531507 3.601610
v -2.074952 -0.230065 -1.483705
v -0.061347 -0.531507 3.601610
v -0.279805 -0.626976 2.388893
v 0.215381 -0.114024 2.388893
v -0.215381 -0.114024 2.388893
v 0.279805 -0.626976 2.388893
v -0.359048 -0.444218 2.388893
v 0.359048 -0.444218 2.388893
v -0.326866 -0.230095 2.388893
v 0.326866 -0.230095 2.388893
v 0.342907 -0.501353 2.388893
v -0.342907 -0.501353 2.388893
v 0.371612 -0.377326 2.386030
v -0.371612 -0.377326 2.386030
v -0.199050 -0.638590 3.022771
v 0.187029 -0.308240 2.996066
v 0.241669 -0.499868 2.996066
v 0.236560 -0.418500 2.996066
v 0.241669 -0.571687 2.996066
v 0.241669 -0.473227 2.996066
v -0.187029 -0.308240 2.996066
v 0.199050 -0.638590 3.022771
v -0.241669 -0.499868 2.996066
v -0.236560 -0.418500 2.996066
v -0.241669 -0.571687 2.996066
v -0.241669 -0.473227 2.996066
v 0.000000 -0.538627 -1.077796
v 0.000000 -0.477887 3.603239
v 0.000000 -0.600680 3.603239
v 0.000000 -0.607440 1.174546
v 0.000000 0.061013 1.423228
v 0.000000 -0.381247 -1.048952
v 0.000000 -0.546646 3.776159
v 0.000000 -0.149072 -1.001139
v 0.000000 -0.500863 3.699126
v 0.000000 -0.571860 3.699126
v 0.000000 -0.537348 3.776586
v 0.000000 -0.309303 -1.025587
v 0.000000 -0.626976 2.388893
v 0.000000 -0.024313 2.388893
v 0.000000 -0.638590 3.022771
v 0.000000 -0.308240 2.996066
v -0.058553 -0.513669 3.603669
v 1.338361 -0.054799 -1.033533
v 0.058553 -0.513669 3.603669
v -1.338361 -0.054799 -1.033533
v 0.368785 -0.360639 2.388235
v -0.368785 -0.360639 2.388235
v -0.242061 -0.447326 2.996066
v 0.242061 -0.447326 2.996066
v 0.000000 -0.519878 3.776372
v 0.000000 -0.229377 -0.998312
v 0.013591 -0.601750 3.603239
v 0.215102 -0.006294 1.235684
v 0.583229 -0.381247 -1.065355
v 0.986275 0.030477 -1.082210
v 0.099048 -0.538627 -1.077796
v 1.055046 -0.230065 -1.194787
v 0.107425 -0.039626 2.391455
v 0.093515 -0.308240 2.996066
v 0.010712 -0.477887 3.603239
v 0.205708 -0.607440 1.174546
v 0.034927 -0.545970 3.699126
v 0.021627 -0.509673 3.699126
v 0.029156 -0.570755 3.699126
v 0.034918 -0.531507 3.699553
v 0.139902 -0.626976 2.388893
v 0.099525 -0.638590 3.022771
v 0.030373 -0.522851 3.699339
v 0.715932 -0.079963 -0.972205
v -0.099048 -0.538627 -1.077796
v -0.010712 -0.477887 3.603239
v -0.205708 -0.607440 1.174546
v -0.034927 -0.545970 3.699126
v -0.021627 -0.509673 3.699126
v -0.029156 -0.570755 3.699126
v -0.034918 -0.531507 3.699553
v -0.139902 -0.626976 2.388893
v -0.099525 -0.638590 3.022771
v -0.013591 -0.601750 3.603239
v -0.215102 -0.006294 1.235684
v -0.583229 -0.381247 -1.065355
v -0.986275 0.030477 -1.082210
v -1.055046 -0.230065 -1.194787
v -0.107425 -0.039626 2.391455
v -0.093515 -0.308240 2.996066
v -0.715932 -0.079963 -0.972205
v -0.030373 -0.522851 3.699339
v -0.633479 0.083667 -0.039801
v 0.285824 -0.577449 -0.039801
v -0.285824 -0.577449 -0.039801
v 0.633479 0.083667 -0.039801
v 0.392516 -0.451728 -0.039801
v -0.392516 -0.451728 -0.039801
v 0.951784 -0.007404 -0.383116
v -0.951784 -0.007404 -0.383116
v -1.961958 -0.327748 -0.734911
v 1.961958 -0.327748 -0.734911
v 0.000000 0.102283 0.041873
v 0.000000 -0.577449 -0.039801
v -0.969013 -0.366264 1.754891
v 0.969013 -0.366264 1.754891
v 0.355480 0.056509 0.053900
v 0.149003 -0.577449 -0.039801
v -0.149003 -0.577449 -0.039801
v 0.000000 -0.011361 -1.060977
v 0.001408 0.073539 -1.163493
v -0.355480 0.056509 0.053900
v -0.523787 0.082489 -0.554797
v 0.523787 0.082489 -0.554797
v 0.000000 0.098564 -0.554797
v -0.523475 0.082489 -0.554797
v 0.683749 0.096068 -0.601647
v -0.683749 0.096068 -0.601647
vn -0.0000 0.9631 0.2691
vn -0.3784 0.8789 0.2905
vn 0.0226 -0.9973 0.0705
vn 0.7988 0.5016 0.3321
vn 0.2048 -0.3075 -0.9293
vn 0.2055 -0.3077 -0.9290
vn 0.2072 -0.3081 -0.9285
vn 0.5844 0.6510 0.4844
vn 0.4397 0.7655 0.4698
vn 0.7065 0.5286 0.4707
vn -0.0000 -0.9997 -0.0247
vn -0.5246 0.8493 0.0596
vn -0.5421 0.8388 0.0496
vn -0.5114 0.8593 0.0052
vn -0.5263 0.8502 0.0098
vn -0.2929 0.9422 0.1625
vn -0.9207 -0.3784 0.0951
vn 0.6366 -0.7712 -0.0007
vn 0.8338 -0.5048 -0.2236
vn 0.6366 -0.7712 -0.0005
vn 0.6367 -0.7711 -0.0006
vn -0.0373 0.1706 -0.9846
vn 0.9501 -0.1216 0.2872
vn -0.2061 -0.9724 0.1097
vn -0.2082 -0.9722 0.1071
vn -0.2109 -0.9720 0.1035
vn -0.9072 -0.3462 0.2390
vn -0.6332 0.7572 0.1603
vn -0.6349 0.7578 0.1501
vn -0.6359 0.7581 0.1443
vn -0.5269 0.8274 0.1944
vn -0.5169 0.8311 0.2052
vn -0.5245 0.8284 0.1968
vn 0.0294 -0.4011 -0.9156
vn 0.9227 0.2334 0.3069
vn -0.8535 0.4167 0.3127
vn -0.5630 -0.7954 0.2242
vn -0.7592 -0.6443 -0.0926
vn 0.8195 -0.5073 0.2665
vn 0.8020 -0.5938 -0.0645
vn -0.8558 -0.5129 0.0673
vn -0.9657 -0.0197 0.2587
vn -0.0770 -0.9970 0.0048
vn -0.0770 -0.9970 0.0047
vn 0.9585 -0.0120 0.2848
vn -0.1331 -0.6804 -0.7206
vn -0.0270 -0.9992 0.0282
vn -0.0013 -0.9996 0.0277
vn -0.0337 -0.9993 0.0136
vn -0.6699 -0.7413 0.0416
vn -0.8216 -0.5650 0.0761
vn -0.7669 -0.6334 0.1038
vn -0.7821 -0.6163 0.0923
vn -0.9752 -0.1254 0.1825
vn 0.7821 -0.6163 0.0923
vn 0.7669 -0.6334 0.1038
vn 0.8216 -0.5650 0.0761
vn 0.6699 -0.7413 0.0416
vn -0.8780 -0.4686 0.0978
vn 0.8558 -0.5129 0.0673
vn 0.6359 0.7581 0.1443
vn 0.6349 0.7578 0.1501
vn 0.6332 0.7572 0.1603
vn -0.9332 0.2767 0.2293
vn 0.9207 -0.3784 0.0951
vn -0.9789 -0.1225 0.1635
vn -0.7882 0.5607 0.2537
vn 0.5263 0.8502 0.0098
vn 0.5114 0.8593 0.0052
vn 0.5421 0.8388 0.0496
vn 0.5246 0.8493 0.0596
vn -0.0000 -0.9999 -0.0161
vn -0.6112 0.7881 0.0735
vn -0.7988 0.5016 0.3321
vn -0.9501 -0.1216 0.2872
vn -0.9227 0.2334 0.3069
vn -0.8195 -0.5073 0.2665
vn -0.9585 -0.0120 0.2848
vn 0.9752 -0.1254 0.1825
vn 0.8780 -0.4686 0.0978
vn 0.9332 0.2767 0.2293
vn 0.9789 -0.1225 0.1635
vn 0.7882 0.5607 0.2537
vn -0.0000 -0.9998 -0.0183
vn -0.3288 0.8784 0.3470
vn 0.0639 0.9077 0.4146
vn 0.2840 0.9564 0.0679
vn 0.0968 -0.2529 -0.9626
vn 0.9109 -0.0145 0.4123
vn 0.0008 -0.9547 0.2977
vn 0.5648 0.7827 0.2615
vn -0.0899 -0.5984 -0.7961
vn 0.5375 -0.7251 0.4304
vn 0.0237 0.1658 -0.9859
vn 0.3151 0.9464 0.0713
vn 0.3204 0.9457 0.0547
vn 0.3157 0.9477 0.0477
vn 0.3213 0.9447 0.0652
vn 0.0094 -0.9979 0.0636
vn 0.2544 0.9337 0.2521
vn 0.1427 0.6241 -0.7682
vn 0.9071 0.1642 0.3875
vn 0.9761 0.0448 0.2124
vn -0.9560 0.0388 0.2907
vn -0.9761 0.0448 0.2124
vn 0.3639 -0.9300 0.0520
vn 0.3655 -0.9299 0.0418
vn 0.3645 -0.9300 0.0484
vn -0.9315 0.2390 0.2741
vn -0.3338 0.9301 0.1531
vn 0.9560 0.0388 0.2907
vn -0.1409 0.7840 -0.6045
vn -0.0505 -0.9985 -0.0227
vn -0.0513 -0.9984 -0.0224
vn -0.0521 -0.9984 -0.0221
vn -0.3645 -0.9300 0.0484
vn -0.3655 -0.9299 0.0418
vn -0.3639 -0.9300 0.0520
vn -0.1427 0.6241 -0.7682
vn 0.9315 0.2390 0.2741
vn 0.3784 0.8789 0.2905
vn 0.2832 0.9565 0.0696
vn 0.3012 0.9066 0.2955
vn 0.2929 0.9422 0.1625
vn 0.9072 -0.3462 0.2390
vn 0.8535 0.4167 0.3127
vn 0.5630 -0.7954 0.2242
vn 0.9657 -0.0197 0.2587
vn 0.6112 0.7881 0.0735
vn 0.3288 0.8784 0.3470
vn -0.0968 -0.2529 -0.9626
vn 0.0899 -0.5984 -0.7961
vn -0.0237 0.1658 -0.9859
vn -0.0094 -0.9979 0.0636
vn -0.9071 0.1642 0.3875
vn 0.1409 0.7840 -0.6045
vn -0.0226 -0.9973 0.0705
vn -0.2072 -0.3081 -0.9285
vn -0.2055 -0.3077 -0.9290
vn -0.2048 -0.3075 -0.9293
vn 0.0373 0.1706 -0.9846
vn -0.0294 -0.4011 -0.9156
vn 0.1331 -0.6804 -0.7206
vn -0.0639 0.9077 0.4146
vn -0.2840 0.9564 0.0679
vn -0.9109 -0.0145 0.4123
vn -0.0008 -0.9547 0.2977
vn -0.5648 0.7827 0.2615
vn -0.5375 -0.7251 0.4304
vn -0.3205 0.9457 0.0541
vn -0.3151 0.9464 0.0713
vn -0.3213 0.9447 0.0652
vn -0.3157 0.9477 0.0477
vn -0.2544 0.9337 0.2521
vn -0.0000 -0.9993 -0.0374
vn -0.1704 0.9852 -0.0162
vn -0.0362 0.9943 0.1001
vn -0.1710 0.9852 -0.0146
vn 0.3338 0.9301 0.1531
vn 0.0521 -0.9984 -0.0221
vn 0.0513 -0.9984 -0.0224
vn 0.0505 -0.9985 -0.0227
vn 0.0770 -0.9970 0.0047
vn 0.0770 -0.9970 0.0048
vn 0.7592 -0.6443 -0.0926
vn -0.8020 -0.5938 -0.0645
vn 0.5245 0.8284 0.1968
vn 0.5169 0.8311 0.2052
vn 0.5269 0.8274 0.1944
vn -0.6368 -0.7711 -0.0006
vn -0.6365 -0.7713 -0.0004
vn -0.7815 -0.5933 0.1930
vn -0.6366 -0.7712 -0.0007
vn 0.2109 -0.9720 0.1035
vn 0.2082 -0.9722 0.1071
vn 0.2061 -0.9724 0.1097
vn 0.1703 0.9853 -0.0162
vn -0.0098 0.9998 -0.0187
vn -0.0380 -0.9843 -0.1724
vn -0.0381 -0.9843 -0.1724
vn -0.0028 -0.3985 -0.9172
vn 0.0778 -0.9900 -0.1177
vn -0.1048 -0.9921 -0.0697
vn -0.0286 -0.9889 -0.1461
vn 0.0793 -0.9901 -0.1156
vn 0.0243 -0.7315 -0.6814
vn 0.1995 0.9090 -0.3659
vn -0.0150 0.9999 -0.0018
vn 0.0779 0.9969 -0.0115
vn 0.0436 0.9921 0.1176
vn 0.0424 0.9969 -0.0662
vn 0.0698 0.9972 0.0282
vn 0.0702 0.9930 -0.0947
vn -0.0698 0.9972 0.0282
vn -0.1916 0.9810 0.0316
vn 0.0150 0.9999 -0.0018
vn -0.1289 0.9864 0.1021
vn -0.1804 0.9829 0.0374
vn -0.1789 0.9838 -0.0095
vn -0.1790 0.9838 -0.0106
vn 0.0816 0.9935 -0.0797
vn 0.1358 0.9886 -0.0659
vn 0.1789 0.9838 -0.0106
vn 0.1788 0.9838 -0.0094
vn 0.2816 0.9409 0.1882
vn 0.3668 0.9179 0.1511
vn 0.3401 0.9094 0.2394
vn -0.3668 0.9179 0.1511
vn -0.3401 0.9094 0.2394
vn 0.2724 0.9098 0.3130
vn 0.3121 0.9297 -0.1955
vn 0.3736 0.9187 0.1279
vn -0.2724 0.9098 0.3130
vn -0.2323 0.9707 0.0615
vn -0.3121 0.9297 -0.1955
vn -0.6857 0.6317 0.3615
vn -0.7456 0.5943 0.3015
vn 0.6857 0.6317 0.3615
vn 0.7456 0.5943 0.3015
vn -0.9827 -0.1793 -0.0472
vn -0.9676 -0.2470 -0.0519
vn -0.9736 -0.1354 -0.1836
vn -0.2593 0.7128 0.6517
vn -0.2954 0.7150 0.6337
vn -0.2870 0.6257 0.7254
vn 0.9827 -0.1793 -0.0472
vn 0.9958 -0.0857 -0.0332
vn 0.9676 -0.2470 -0.0519
vn 0.3263 0.5722 0.7524
vn 0.2870 0.6257 0.7254
vn 0.2954 0.7150 0.6337
vn 0.8947 0.3838 0.2287
vn 0.8062 0.5865 0.0773
vn 0.8510 0.4339 0.2960
vn -0.5844 0.6510 0.4844
vn -0.7065 0.5286 0.4707
vn -0.4397 0.7655 0.4698
vn -0.8947 0.3838 0.2287
vn -0.8510 0.4339 0.2960
vn -0.8062 0.5865 0.0773
vn -0.0413 -0.9990 -0.0185
vn 0.0014 -0.9996 0.0277
vn 0.0270 -0.9992 0.0281
vt 0.668643 0.254976
vt 0.750025 0.631627
vt 0.165856 0.053635
vt 0.047904 0.720330
vt 0.590395 0.188311
vt 0.999473 0.589199
vt 0.590395 0.358202
vt 0.811129 0.597095
vt 0.981147 0.021407
vt 0.180268 0.650665
vt 0.995895 0.021562
vt 0.789265 0.021629
vt 0.668643 0.074355
vt 0.752755 0.576598
vt 0.750256 0.451007
vt 0.340622 0.076855
vt 0.000000 0.770651
vt 0.590394 0.397077
vt 0.864143 0.583911
vt 0.590395 0.141020
vt 0.858294 0.593635
vt 0.185369 0.651343
vt 0.888965 0.021690
vt 0.874061 0.021070
vt 0.795936 0.021139
vt 0.860452 0.315943
vt 0.860452 0.320750
vt 0.178709 0.326077
vt 0.126729 0.808447
vt 0.266155 0.337695
vt 0.920508 0.342960
vt 0.999012 0.322756
vt 0.768466 0.322692
vt 0.609459 0.323579
vt 0.455985 0.342896
vt 0.878942 0.022355
vt 0.990105 0.022402
vt 0.609459 0.005752
vt 0.455985 0.412382
vt 0.583104 0.077368
vt 0.963227 0.326883
vt 0.891759 0.327460
vt 0.583104 0.677911
vt 0.188536 0.652161
vt 0.886344 0.022508
vt 0.768466 0.241058
vt 0.092784 0.818586
vt 0.206610 0.008383
vt 0.176062 0.650504
vt 0.982916 0.022197
vt 0.768466 0.088274
vt 0.840082 0.765744
vt 0.047904 0.672658
vt 0.354442 0.028024
vt 0.144536 0.254387
vt 0.959238 0.419739
vt 0.556143 0.166149
vt 0.092783 0.735597
vt 0.608637 0.672725
vt 0.891975 0.420200
vt 0.556143 0.589130
vt 0.992920 0.022098
vt 0.786673 0.021746
vt 0.590395 0.075977
vt 0.978162 0.322807
vt 0.878412 0.322372
vt 0.590394 0.679301
vt 0.798518 0.020877
vt 0.876456 0.021851
vt 0.623427 0.419958
vt 0.000000 0.000000
vt 0.354442 0.377639
vt 0.987159 0.022624
vt 0.737928 0.419958
vt 0.354442 0.377639
vt 0.881855 0.022739
vt 0.863277 0.173136
vt 0.837869 0.167910
vt 0.937447 0.172490
vt 0.181333 0.494444
vt 0.926857 0.174545
vt 0.232615 0.501257
vt 0.999267 0.174170
vt 0.769202 0.172947
vt 0.884520 0.176725
vt 0.975842 0.176177
vt 0.911134 0.177154
vt 0.164698 0.494807
vt 0.950109 0.175341
vt 0.983047 0.175769
vt 0.877760 0.175864
vt 0.967501 0.176836
vt 0.892513 0.177883
vt 0.865009 0.095132
vt 0.822258 0.090923
vt 0.959859 0.098699
vt 0.172275 0.571694
vt 0.982535 0.100106
vt 0.972658 0.099970
vt 0.991314 0.100111
vt 0.979278 0.100104
vt 0.905463 0.100110
vt 0.216806 0.577610
vt 1.000000 0.095815
vt 0.773409 0.094507
vt 0.881289 0.100507
vt 0.891304 0.100885
vt 0.872512 0.100038
vt 0.884545 0.100682
vt 0.590395 0.164666
vt 0.834711 0.595365
vt 0.182819 0.651004
vt 0.792601 0.021389
vt 0.814459 0.319317
vt 0.222870 0.378154
vt 0.610008 0.164666
vt 0.989356 0.000052
vt 0.881412 0.000000
vt 0.791032 0.000000
vt 0.639004 0.164666
vt 0.886760 0.009473
vt 0.181078 0.662992
vt 0.791731 0.009532
vt 0.988219 0.000000
vt 0.882550 0.000010
vt 0.619093 0.164666
vt 0.803535 0.170429
vt 0.209574 0.496207
vt 0.797834 0.092715
vt 0.194540 0.574652
vt 0.884081 0.022526
vt 0.650171 0.329331
vt 0.087722 0.062745
vt 0.985011 0.022304
vt 0.650171 0.000000
vt 0.663764 0.481106
vt 0.768466 0.651278
vt 0.965494 0.176498
vt 0.894599 0.177644
vt 0.887705 0.100863
vt 0.976107 0.100112
vt 0.179661 0.672658
vt 0.986084 0.000025
vt 0.884685 0.000150
vt 0.629202 0.164666
vt 0.790933 0.021515
vt 0.197414 0.353361
vt 0.542921 0.350128
vt 0.609816 0.236423
vt 0.660044 0.286012
vt 0.740247 0.662651
vt 0.590395 0.176852
vt 0.822558 0.596257
vt 0.483394 0.358138
vt 0.626814 0.294473
vt 0.196312 0.495097
vt 0.183408 0.573173
vt 0.181544 0.650835
vt 0.789217 0.321169
vt 0.787439 0.009761
vt 0.989013 0.010215
vt 0.178248 0.662811
vt 0.984759 0.009873
vt 0.992122 0.010069
vt 0.788153 0.009791
vt 0.987244 0.010162
vt 0.786369 0.171688
vt 0.785622 0.093611
vt 0.176823 0.662940
vt 0.986249 0.010071
vt 0.647808 0.252750
vt 0.590395 0.152479
vt 0.846865 0.594473
vt 0.184094 0.651173
vt 0.839700 0.317465
vt 0.880766 0.010233
vt 0.796010 0.009132
vt 0.885385 0.010069
vt 0.183398 0.663495
vt 0.877816 0.009897
vt 0.795308 0.009266
vt 0.882535 0.010277
vt 0.820702 0.169169
vt 0.810046 0.091819
vt 0.794269 0.021270
vt 0.936322 0.312575
vt 0.248629 0.360166
vt 0.609816 0.092908
vt 0.542920 0.405151
vt 0.660044 0.043319
vt 0.740556 0.419958
vt 0.626814 0.034858
vt 0.622612 0.470865
vt 0.483394 0.397140
vt 0.937447 0.171465
vt 0.221890 0.498496
vt 0.205673 0.576131
vt 0.590395 0.499090
vt 0.647808 0.076581
vt 0.883655 0.010222
vt 0.315339 0.211272
vt 0.937447 0.477700
vt 1.000000 0.466650
vt 0.790308 0.470745
vt 0.860452 0.465598
vt 0.861443 0.462872
vt 0.164511 0.191233
vt 0.126729 0.672658
vt 0.983171 0.469361
vt 0.582004 0.228169
vt 0.875336 0.466918
vt 0.582004 0.527110
vt 0.127826 0.146452
vt 0.632497 0.563744
vt 0.840082 0.597095
vt 0.354442 0.176560
vt 0.920823 0.527605
vt 0.737928 0.513598
vt 0.379754 0.466940
vt 0.002228 0.093905
vt 0.379754 0.288339
vt 0.239549 0.210764
vt 0.825380 0.468172
vt 0.539379 0.755278
vt 0.671094 0.827658
vt 0.539379 0.000000
vt 0.091412 0.410664
vt 0.195769 0.207430
vt 0.807096 0.469513
vt 0.843663 0.466830
vt 0.655169 0.164666
vt 0.737928 0.541301
vt 0.750256 0.541490
vt 0.252059 0.065863
vt 0.752755 0.419958
vt 0.280407 0.218675
vt 0.750293 0.497511
vt 0.308019 0.147434
vt 0.183308 0.130865
vt 0.246129 0.138855
vt 0.750256 0.497500
vt 0.307982 0.147429
vt 0.092784 0.672658
vt 0.165183 0.122434
vt 0.047904 0.816557
vt 0.327981 0.144063
s 0
usemtl マテリアル
f 116/197/1 51/103/1 7/22/1 102/174/1
f 105/179/2 102/174/2 7/22/2 19/44/2
f 98/168/3 52/105/3 4/12/3 83/146/3
f 48/99/4 46/96/4 3/9/4 21/50/4
f 86/150/5 1/1/6 20/46/7
f 125/213/8 122/207/9 23/55/10
f 134/229/11 120/204/11 12/33/11 92/159/11
f 39/87/12 35/81/13 11/31/14 24/60/15
f 138/236/16 119/201/16 11/30/16 111/187/16
f 42/91/17 37/85/17 18/42/17 27/66/17
f 123/210/18 23/57/19 17/40/20 26/64/21
f 87/152/22 85/149/22 13/34/22 2/5/22
f 49/100/23 47/98/23 15/37/23 25/62/23
f 124/212/24 16/39/25 6/18/26
f 106/180/27 104/176/27 14/36/27 28/69/27
f 78/139/28 39/87/29 24/60/30
f 132/227/31 125/213/32 23/55/33
f 100/171/34 86/150/34 20/46/34 74/132/34
f 80/141/35 48/99/35 21/50/35 75/134/35
f 118/200/36 105/178/36 19/45/36 73/131/36
f 110/185/37 106/181/37 28/68/37 8/25/37
f 121/206/38 124/211/38 6/19/38
f 52/104/39 49/100/39 25/62/39 4/11/39
f 120/203/40 123/209/40 26/65/40 12/32/40
f 33/77/41 42/91/41 27/66/41 9/27/41
f 104/176/42 107/182/42 32/76/42 14/36/42
f 124/212/43 127/219/43 31/75/44 16/39/44
f 47/98/45 50/101/45 30/73/45 15/37/45
f 85/148/46 88/154/46 29/72/46 13/35/46
f 123/210/47 128/221/48 23/57/49
f 37/85/50 44/93/51 24/60/52 18/42/53
f 53/106/54 56/109/54 44/93/54 37/85/54
f 17/41/55 23/56/56 43/92/57 38/86/58
f 45/94/59 55/108/59 42/91/59 33/77/59
f 12/32/60 26/65/60 41/90/60 36/83/60
f 23/56/61 40/89/62 77/138/63
f 79/140/64 54/107/64 39/87/64 78/139/64
f 26/65/65 17/41/65 38/86/65 41/90/65
f 55/108/66 53/106/66 37/85/66 42/91/66
f 54/107/67 51/102/67 35/81/67 39/87/67
f 23/55/68 10/28/69 34/80/70 40/88/71
f 92/159/72 12/33/72 36/84/72 97/167/72
f 111/186/73 11/31/73 35/81/73 115/195/73
f 19/45/74 7/23/74 51/102/74 54/107/74
f 28/69/75 14/36/75 53/106/75 55/108/75
f 73/131/76 19/45/76 54/107/76 79/140/76
f 8/24/77 28/69/77 55/108/77 45/94/77
f 14/36/78 32/76/78 56/109/78 53/106/78
f 38/86/79 43/92/79 50/101/79 47/98/79
f 36/83/80 41/90/80 49/100/80 52/104/80
f 77/138/81 40/89/81 48/99/81 80/141/81
f 41/90/82 38/86/82 47/98/82 49/100/82
f 40/89/83 34/79/83 46/96/83 48/99/83
f 97/167/84 36/84/84 52/105/84 98/168/84
f 115/196/85 35/82/85 51/103/85 116/197/85
f 89/156/86 70/128/86 72/130/86 90/157/86
f 108/183/84 69/127/84 71/129/84 109/184/84
f 84/147/87 61/115/87 70/128/87 89/156/87
f 103/175/72 60/114/72 69/127/72 108/183/72
f 112/188/88 114/192/88 68/126/88 62/116/88
f 93/161/89 96/166/89 67/124/89 63/117/89
f 83/146/90 95/165/90 66/123/90 59/113/90
f 99/169/91 94/162/91 65/122/91 81/142/91
f 117/199/92 113/190/92 64/120/92 82/145/92
f 95/165/93 93/160/93 63/119/93 66/123/93
f 101/172/94 112/188/94 62/116/94 57/110/94
f 133/228/95 129/222/96 61/115/97 84/147/98
f 135/230/11 130/223/11 60/114/11 103/175/11
f 109/184/99 71/129/99 59/113/99 110/185/99
f 94/162/100 91/158/100 58/112/100 65/122/100
f 90/157/1 72/130/1 58/112/1 91/158/1
f 114/192/101 117/199/101 82/145/101 68/126/101
f 96/166/102 99/170/102 81/143/102 67/124/102
f 43/92/103 77/138/103 80/141/103 50/101/103
f 32/76/104 73/131/104 79/140/104 56/109/104
f 56/109/105 79/140/105 78/139/105 44/93/105
f 23/56/106 77/138/107 43/92/108
f 107/182/109 118/200/109 73/131/109 32/76/109
f 127/218/110 131/225/110 76/136/110 31/74/110
f 50/101/111 80/141/111 75/134/111 30/73/111
f 88/155/112 100/171/112 74/132/112 29/70/112
f 128/221/113 132/226/114 23/57/115
f 44/93/116 78/139/117 24/60/118
f 68/126/119 82/145/119 100/171/119 88/155/119
f 30/73/120 75/134/120 99/170/120 96/166/120
f 46/97/1 90/157/1 91/158/1 3/10/1
f 21/49/121 3/10/121 91/158/121 94/162/121
f 133/228/122 84/147/123 10/28/124 122/207/124
f 25/62/125 15/37/125 93/161/125 95/164/125
f 75/134/126 21/50/126 94/163/126 99/170/126
f 4/12/127 25/63/127 95/165/127 83/146/127
f 15/37/128 30/73/128 96/166/128 93/161/128
f 10/28/129 84/147/129 89/156/129 34/80/129
f 34/80/130 89/156/130 90/157/130 46/97/130
f 69/127/84 97/167/84 98/168/84 71/129/84
f 60/114/72 92/159/72 97/167/72 69/127/72
f 62/116/131 68/126/131 88/155/131 85/149/131
f 82/145/132 64/120/132 86/150/132 100/171/132
f 57/110/133 62/116/133 85/149/133 87/152/133
f 130/223/11 134/229/11 92/159/11 60/114/11
f 71/129/134 98/168/134 83/146/134 59/113/134
f 67/125/135 81/144/135 118/200/135 107/182/135
f 31/74/136 76/136/136 117/198/136 114/193/136
f 45/95/137 109/184/137 110/185/137 8/25/137
f 22/51/138 5/13/139 113/190/140
f 121/205/11 135/230/11 103/175/11 9/26/11
f 6/20/141 16/38/141 112/188/141 101/172/141
f 76/135/142 22/51/142 113/190/142 117/199/142
f 16/39/143 31/75/143 114/194/143 112/189/143
f 9/26/72 103/175/72 108/183/72 33/78/72
f 33/78/84 108/183/84 109/184/84 45/95/84
f 70/128/144 115/196/144 116/197/144 72/130/144
f 61/115/145 111/187/145 115/196/145 70/128/145
f 63/118/146 67/125/146 107/182/146 104/176/146
f 59/113/147 66/123/147 106/181/147 110/185/147
f 81/144/148 65/121/148 105/178/148 118/200/148
f 66/123/149 63/119/149 104/177/149 106/181/149
f 129/222/150 138/236/151 111/187/152 61/115/153
f 65/122/154 58/112/154 102/174/154 105/179/154
f 72/130/1 116/197/1 102/174/1 58/112/1
f 6/21/155 101/173/155 135/230/155 121/205/155
f 57/111/155 87/153/155 134/229/155 130/223/155
f 1/3/156 140/239/157 143/244/158
f 29/71/159 74/133/159 132/227/159 128/220/159
f 24/61/160 131/224/161 127/219/162
f 101/173/155 57/111/155 130/223/155 135/230/155
f 13/35/163 29/72/163 128/221/164 123/210/164
f 2/6/165 123/209/165 120/203/165
f 9/27/166 27/66/166 124/211/166 121/206/166
f 24/59/167 126/214/168 131/225/169
f 27/67/170 18/43/171 24/61/172 124/212/173
f 2/7/174 13/35/175 123/210/176
f 5/16/177 144/246/178 142/242/177
f 87/153/155 2/8/155 120/204/155 134/229/155
f 64/120/179 113/190/179 136/231/180
f 86/150/181 64/120/181 136/231/181
f 5/14/182 142/241/183 138/235/184 139/237/185
f 86/151/186 136/232/186 137/233/186 1/2/186
f 137/233/187 136/232/187 113/191/187 5/15/187
f 137/234/188 141/240/188 140/239/189 1/3/188
f 133/228/190 140/239/191 141/240/192 129/222/193
f 141/240/194 139/238/194 138/236/194 129/222/195
f 141/240/196 137/234/196 5/16/196 139/238/196
f 143/244/197 140/239/198 133/228/199 122/207/200
f 142/242/201 144/246/202 119/201/203 138/236/204
f 132/227/205 74/133/206 125/213/207
f 131/225/208 126/214/209 76/136/208
f 122/207/210 125/213/211 143/244/212
f 119/201/213 144/246/214 126/216/215
f 76/137/216 126/215/217 22/52/216
f 74/133/218 20/48/218 125/213/219
f 20/47/220 1/4/221 143/243/222
f 143/244/223 125/213/224 20/48/225
f 22/53/226 144/245/227 5/17/228
f 144/246/229 22/54/230 126/216/231
f 23/58/232 122/208/233 10/29/234
f 126/217/235 24/60/236 119/202/237
f 24/60/238 11/31/239 119/202/240
f 24/61/241 127/219/242 124/212/243
