# Blender 3.3.1
# www.blender.org
mtllib mountain.mtl
o 円錐
v 0.000000 0.000000 -2.000000
v 0.390181 0.000000 -1.961571
v 0.765367 0.000000 -1.847759
v 1.111140 0.000000 -1.662939
v 1.414214 0.000000 -1.414214
v 1.662939 0.000000 -1.111140
v 1.847759 0.000000 -0.765367
v 1.961571 0.000000 -0.390181
v 2.000000 0.000000 0.000000
v 1.961571 -0.000000 0.390180
v 1.847759 -0.000000 0.765367
v 1.662939 -0.000000 1.111140
v 1.414214 -0.000000 1.414214
v 1.111140 -0.000000 1.662939
v 0.765367 -0.000000 1.847759
v 0.556510 -0.000000 1.961571
v 0.110097 -0.000000 2.000000
v -0.280084 -0.000000 1.961570
v -0.765368 -0.000000 1.847759
v -1.111141 -0.000000 1.662939
v -1.414214 -0.000000 1.414213
v -1.662940 -0.000000 1.111139
v -1.847760 -0.000000 0.765365
v -1.961571 -0.000000 0.390179
v -2.000000 0.000000 -0.000002
v -1.961570 0.000000 -0.390183
v -1.847758 0.000000 -0.765369
v -1.662938 0.000000 -1.111143
v -1.414212 0.000000 -1.414215
v -1.111138 0.000000 -1.662941
v -0.765364 0.000000 -1.847760
v -0.390178 0.000000 -1.961571
v -0.244532 2.000000 0.000000
v 1.071246 1.000000 0.195090
v 0.849039 0.992118 0.382683
v 0.756629 0.939251 0.555570
v -1.340416 1.000000 0.195089
v -1.220220 0.951007 0.382683
v -1.408453 1.000000 -0.000001
v -1.202379 1.000000 -0.195091
v -1.145473 1.000000 -0.382684
v -0.982280 1.000000 -0.413325
v -0.250518 1.500000 0.500000
v -0.348064 1.500000 0.490393
v -0.549696 0.998109 0.923879
v -0.441860 1.579173 0.461940
v -0.259025 0.750000 1.225981
v -0.015162 0.750000 1.250000
v 0.155989 1.003811 1.150633
v 0.315466 1.000000 0.923880
v 0.488353 1.000000 0.831470
v 0.639890 1.000000 0.707107
v -0.044271 1.404869 0.490393
v -0.748746 1.000000 0.831469
v -0.891541 1.000000 0.707106
v -1.065609 1.000000 0.555570
v -0.870443 1.000000 -0.707108
v -0.677835 1.000000 -0.593373
v -0.567443 0.902240 -0.923880
v -0.361534 1.087310 -0.980786
v -0.144495 0.867804 -1.000000
v 0.006182 0.951553 -0.980785
v 0.260418 1.018789 -1.127611
v 0.398377 1.033363 -0.843651
v 0.622802 0.925853 -0.691149
v 0.709204 1.027068 -0.469253
v 0.917057 1.000000 -0.382683
v 0.858519 1.182502 -0.242420
v 0.995600 1.000000 -0.023108
vn -0.0933 0.7092 -0.6988
vn -0.2524 0.5977 -0.7609
vn 0.5351 0.6994 -0.4737
vn 0.5352 0.6994 -0.4737
vn 0.5260 0.7337 -0.4300
vn 0.4820 0.7397 -0.4696
vn 0.4961 0.7126 -0.4960
vn 0.4961 0.7127 -0.4960
vn 0.5957 0.6924 -0.4070
vn 0.5958 0.6924 -0.4070
vn 0.6944 0.7162 0.0695
vn 0.6963 0.7115 -0.0951
vn 0.6962 0.7115 -0.0951
vn 0.5661 0.6989 0.4371
vn 0.5662 0.6988 0.4371
vn 0.5449 0.7338 0.4056
vn 0.5964 0.7342 0.3243
vn 0.4364 0.7259 0.5317
vn 0.3268 0.7208 0.6113
vn 0.3869 0.7201 0.5760
vn -0.0558 0.6859 0.7255
vn -0.0557 0.6859 0.7255
vn -0.0702 0.6981 0.7125
vn -0.1105 0.6863 0.7189
vn -0.1106 0.6863 0.7189
vn -0.4049 0.6707 0.6215
vn -0.4810 0.6668 0.5692
vn -0.5368 0.6577 0.5285
vn -0.6653 0.6431 0.3792
vn -0.6750 0.6136 0.4098
vn -0.7842 0.5952 0.1753
vn -0.7842 0.5952 0.1754
vn -0.7037 0.5828 -0.4064
vn -0.7361 0.6390 -0.2233
vn -0.4808 0.6358 -0.6038
vn -0.4808 0.6359 -0.6038
vn -0.6650 0.6583 -0.3527
vn -0.0237 0.6385 -0.7693
vn -0.5420 0.6731 -0.5032
vn -0.0000 -1.0000 -0.0000
vn -0.4784 0.6453 -0.5956
vn -0.4780 0.6445 -0.5967
vn 0.2993 0.6782 -0.6711
vn 0.2993 0.6783 -0.6711
vn -0.0932 0.7093 -0.6988
vn -0.0932 0.7092 -0.6988
vn -0.2524 0.5977 -0.7610
vn 0.5261 0.7337 -0.4300
vn 0.5972 0.6909 -0.4075
vn 0.5662 0.6989 0.4371
vn 0.5661 0.6988 0.4371
vn 0.4364 0.7258 0.5317
vn 0.3868 0.7201 0.5760
vn -0.0702 0.6982 0.7125
vn -0.4049 0.6706 0.6215
vn -0.5368 0.6576 0.5286
vn -0.5368 0.6576 0.5285
vn -0.6750 0.6136 0.4097
vn -0.7038 0.5827 -0.4063
vn -0.7038 0.5828 -0.4063
vn -0.0237 0.6385 -0.7692
vn -0.0238 0.6385 -0.7693
vn -0.0238 0.6385 -0.7692
vn -0.5420 0.6731 -0.5031
vn -0.4781 0.6445 -0.5967
vn 0.2993 0.6782 -0.6712
vt 0.266880 0.929484
vt 0.000000 0.241236
vt 0.387150 0.439213
vt 0.295776 0.927536
vt 0.000000 0.197977
vt 0.318725 0.921010
vt 0.438022 0.953318
vt 0.008439 0.155550
vt 0.475354 0.969807
vt 0.024994 0.115584
vt 0.515876 0.983162
vt 0.049027 0.079616
vt 0.558030 0.992868
vt 0.079615 0.049027
vt 0.600197 0.998554
vt 0.115584 0.024994
vt 0.640756 1.000000
vt 0.318725 0.938836
vt 0.155549 0.008439
vt 0.352205 0.943313
vt 0.385492 0.439213
vt 0.197977 0.000000
vt 0.352205 0.443284
vt 0.763693 0.462701
vt 0.241236 0.000000
vt 0.801625 0.477340
vt 0.283663 0.008439
vt 0.842691 0.488573
vt 0.323629 0.024994
vt 0.885313 0.495968
vt 0.359597 0.049027
vt 0.927851 0.499241
vt 0.390186 0.079615
vt 0.968672 0.498265
vt 0.414219 0.115584
vt 0.993498 0.497779
vt 0.763693 0.000000
vt 0.428975 0.137286
vt 0.722319 0.001984
vt 0.438022 0.185888
vt 0.683228 0.007955
vt 0.438022 0.229147
vt 0.631923 0.019265
vt 0.430773 0.283663
vt 0.591149 0.033426
vt 0.414219 0.323629
vt 0.551883 0.050940
vt 0.390186 0.359597
vt 0.515633 0.071135
vt 0.359597 0.390186
vt 0.483794 0.093234
vt 0.323629 0.414219
vt 0.457588 0.116388
vt 0.283663 0.430773
vt 0.438022 0.139707
vt 0.000000 0.841740
vt 0.241236 0.439213
vt 0.030331 0.861818
vt 0.197977 0.439213
vt 0.065627 0.880440
vt 0.155549 0.430773
vt 0.104531 0.896890
vt 0.115584 0.414219
vt 0.145550 0.910537
vt 0.079615 0.390186
vt 0.187105 0.920855
vt 0.049027 0.359597
vt 0.024994 0.323629
vt 0.227600 0.927448
vt 0.008439 0.283663
vt 0.265480 0.930062
vt 0.415618 0.446866
vt 0.352205 0.439213
vt 0.385492 0.943947
vt 0.397320 0.929444
vt 0.289924 0.439213
vt 0.632977 0.494442
vt 0.966779 0.000000
vt 0.749334 0.494442
vt 0.261888 0.439213
vt 0.357195 0.680938
vt 0.848983 0.237362
vt 0.880323 0.241515
vt 0.899139 0.257223
vt 0.580631 0.307672
vt 0.596331 0.286394
vt 0.566152 0.319796
vt 0.108116 0.643025
vt 0.138187 0.651400
vt 0.155835 0.660711
vt 0.170993 0.660861
vt 0.733477 0.372228
vt 0.723704 0.373720
vt 0.686190 0.256928
vt 0.719165 0.390990
vt 0.708760 0.190314
vt 0.733193 0.186582
vt 0.993498 0.256245
vt 0.763693 0.237937
vt 0.963519 0.250688
vt 0.943109 0.251176
vt 0.921840 0.249540
vt 0.970370 0.142605
vt 0.746147 0.353165
vt 0.663421 0.264608
vt 0.644629 0.273282
vt 0.621723 0.283852
vt 0.200443 0.675241
vt 0.207858 0.667573
vt 0.233803 0.702798
vt 0.265480 0.668141
vt 0.415618 0.704872
vt 0.265480 0.708716
vt 0.385492 0.660248
vt 0.283420 0.692248
vt 0.318725 0.688976
vt 0.518016 0.722886
vt 0.552467 0.724030
vt 0.574826 0.754773
vt 0.604475 0.737413
vt 0.623502 0.752785
vt 0.640756 0.713101
vt 0.320045 0.655217
vt 0.343708 0.698302
vt 0.381131 0.684450
s 0
usemtl マテリアル
f 61/113/1 62/115/1 2/4/1
f 62/115/2 33/76/2 63/116/2
f 63/117/3 64/118/4 4/9/3
f 64/118/5 33/77/5 65/119/5
f 65/119/6 66/120/6 6/13/6
f 66/120/7 33/77/8 67/121/7
f 67/121/9 68/122/9 8/17/10
f 68/123/11 33/73/11 69/124/11
f 69/125/12 33/74/13 34/81/13
f 34/82/14 35/83/15 11/26/15
f 35/83/16 33/78/16 36/84/16
f 36/84/17 52/102/17 13/30/17
f 52/102/18 51/101/18 14/32/18
f 51/101/19 50/100/19 15/34/19
f 53/103/20 49/98/20 50/100/20
f 48/97/21 49/99/21 43/92/22
f 48/97/23 43/92/23 47/96/23
f 44/93/24 46/95/24 45/94/25
f 45/94/26 46/95/26 54/105/26
f 54/105/27 55/106/27 21/47/27
f 55/106/28 56/107/28 22/49/28
f 56/107/29 33/79/29 38/86/29
f 38/86/30 37/85/30 24/53/30
f 37/85/31 33/79/32 39/87/32
f 39/88/33 40/89/33 26/58/33
f 40/89/34 33/80/34 41/90/34
f 41/90/35 42/91/36 28/62/35
f 42/91/37 33/80/37 57/108/37
f 57/108/38 58/109/38 30/66/38
f 58/109/39 33/80/39 59/110/39
f 15/35/40 17/40/40 18/42/40
f 59/110/41 60/111/42 32/71/42
f 60/112/43 33/75/44 61/114/44
f 2/4/45 1/1/46 61/113/46
f 61/113/1 33/76/46 62/115/46
f 3/6/47 2/4/2 63/116/2
f 2/4/2 62/115/2 63/116/2
f 4/9/4 3/7/4 63/117/4
f 63/117/4 33/77/4 64/118/4
f 5/11/5 4/9/5 65/119/5
f 4/9/48 64/118/48 65/119/48
f 6/13/6 5/11/6 65/119/6
f 65/119/6 33/77/6 66/120/6
f 7/15/7 6/13/7 67/121/8
f 6/13/7 66/120/7 67/121/7
f 8/17/49 7/15/9 67/121/9
f 67/121/10 33/77/9 68/122/10
f 9/20/11 8/18/11 69/124/11
f 8/18/11 68/123/11 69/124/11
f 10/23/12 9/21/12 34/81/12
f 9/21/12 69/125/12 34/81/12
f 11/26/15 10/24/50 34/82/15
f 34/82/15 33/78/14 35/83/51
f 12/28/16 11/26/16 36/84/16
f 11/26/16 35/83/16 36/84/16
f 13/30/17 12/28/17 36/84/17
f 36/84/17 33/78/17 52/102/17
f 14/32/52 13/30/52 52/102/52
f 52/102/18 33/78/18 51/101/18
f 15/34/19 14/32/19 51/101/19
f 51/101/19 33/78/19 50/100/19
f 16/36/20 15/34/20 49/98/20
f 15/34/20 50/100/20 49/98/20
f 50/100/20 33/78/20 53/103/53
f 17/39/22 16/37/22 48/97/22
f 16/37/21 49/99/21 48/97/21
f 53/104/22 33/79/22 43/92/22
f 49/99/21 53/104/21 43/92/21
f 18/41/54 17/39/54 48/97/54
f 43/92/54 33/79/54 44/93/54
f 47/96/54 18/41/54 48/97/54
f 43/92/54 44/93/54 47/96/54
f 19/43/24 18/41/24 47/96/24
f 44/93/24 33/79/24 46/95/24
f 19/43/24 47/96/24 45/94/24
f 47/96/24 44/93/24 45/94/24
f 20/45/26 19/43/26 45/94/26
f 46/95/26 33/79/55 54/105/26
f 20/45/26 45/94/26 54/105/26
f 21/47/27 20/45/27 54/105/27
f 54/105/27 33/79/27 55/106/27
f 22/49/56 21/47/56 55/106/56
f 55/106/56 33/79/57 56/107/56
f 23/51/29 22/49/29 38/86/29
f 22/49/29 56/107/29 38/86/29
f 24/53/30 23/51/30 38/86/30
f 38/86/30 33/79/30 37/85/58
f 25/55/32 24/53/32 39/87/32
f 24/53/31 37/85/31 39/87/31
f 26/58/59 25/56/60 39/88/60
f 39/88/60 33/80/60 40/89/60
f 27/60/34 26/58/34 41/90/34
f 26/58/34 40/89/34 41/90/34
f 28/62/36 27/60/35 41/90/35
f 41/90/35 33/80/36 42/91/35
f 29/64/37 28/62/37 57/108/37
f 28/62/37 42/91/37 57/108/37
f 30/66/61 29/64/62 57/108/62
f 57/108/63 33/80/63 58/109/62
f 31/69/64 30/66/64 59/110/64
f 30/66/39 58/109/39 59/110/39
f 32/70/40 1/2/40 18/42/40
f 1/2/40 2/5/40 18/42/40
f 2/5/40 3/8/40 18/42/40
f 3/8/40 4/10/40 18/42/40
f 4/10/40 5/12/40 18/42/40
f 5/12/40 6/14/40 18/42/40
f 6/14/40 7/16/40 18/42/40
f 7/16/40 8/19/40 18/42/40
f 8/19/40 9/22/40 18/42/40
f 9/22/40 10/25/40 18/42/40
f 10/25/40 11/27/40 18/42/40
f 11/27/40 12/29/40 18/42/40
f 12/29/40 13/31/40 18/42/40
f 13/31/40 14/33/40 18/42/40
f 15/35/40 16/38/40 17/40/40
f 14/33/40 15/35/40 18/42/40
f 30/67/40 31/68/40 18/42/40
f 31/68/40 32/70/40 18/42/40
f 28/63/40 29/65/40 18/42/40
f 29/65/40 30/67/40 18/42/40
f 26/59/40 27/61/40 18/42/40
f 27/61/40 28/63/40 18/42/40
f 24/54/40 25/57/40 18/42/40
f 25/57/40 26/59/40 18/42/40
f 22/50/40 23/52/40 18/42/40
f 23/52/40 24/54/40 18/42/40
f 20/46/40 21/48/40 18/42/40
f 21/48/40 22/50/40 18/42/40
f 18/42/40 19/44/40 20/46/40
f 32/71/65 31/69/65 59/110/65
f 59/110/42 33/80/65 60/111/42
f 1/3/43 32/72/43 61/114/43
f 32/72/66 60/112/43 61/114/43
